<?xml version="1.0" encoding="UTF-8" standalone="no"?>
<!-- Created with Inkscape (http://www.inkscape.org/) -->

<svg
   xmlns:dc="http://purl.org/dc/elements/1.1/"
   xmlns:cc="http://creativecommons.org/ns#"
   xmlns:rdf="http://www.w3.org/1999/02/22-rdf-syntax-ns#"
   xmlns:svg="http://www.w3.org/2000/svg"
   xmlns="http://www.w3.org/2000/svg"
   xmlns:sodipodi="http://sodipodi.sourceforge.net/DTD/sodipodi-0.dtd"
   xmlns:inkscape="http://www.inkscape.org/namespaces/inkscape"
   width="130mm"
   height="80mm"
   viewBox="0 0 130 80"
   version="1.1"
   id="svg8"
   inkscape:version="0.92.2 5c3e80d, 2017-08-06"
   sodipodi:docname="OSD_logo_favicon.svg"
   inkscape:export-filename="/Users/lucacorsato/Documents/osd/website/openstrategydata/assets/img/OSD_logo_2.png"
   inkscape:export-xdpi="300"
   inkscape:export-ydpi="300">
  <defs
     id="defs2" />
  <sodipodi:namedview
     id="base"
     pagecolor="#ffffff"
     bordercolor="#666666"
     borderopacity="1.0"
     inkscape:pageopacity="0.0"
     inkscape:pageshadow="2"
     inkscape:zoom="1.3636218"
     inkscape:cx="-373.67072"
     inkscape:cy="98.10334"
     inkscape:document-units="mm"
     inkscape:current-layer="layer1"
     showgrid="false"
     inkscape:snap-bbox="true"
     inkscape:bbox-paths="true"
     inkscape:bbox-nodes="true"
     inkscape:snap-bbox-edge-midpoints="true"
     inkscape:snap-bbox-midpoints="true"
     inkscape:object-paths="true"
     inkscape:snap-intersection-paths="true"
     inkscape:window-width="1920"
     inkscape:window-height="1097"
     inkscape:window-x="0"
     inkscape:window-y="1"
     inkscape:window-maximized="1"
     fit-margin-top="0"
     fit-margin-left="0"
     fit-margin-right="0"
     fit-margin-bottom="0" />
  <metadata
     id="metadata5">
    <rdf:RDF>
      <cc:Work
         rdf:about="">
        <dc:format>image/svg+xml</dc:format>
        <dc:type
           rdf:resource="http://purl.org/dc/dcmitype/StillImage" />
        <dc:title></dc:title>
      </cc:Work>
    </rdf:RDF>
  </metadata>
  <g
     inkscape:label="Livello 1"
     inkscape:groupmode="layer"
     id="layer1"
     transform="translate(-29.482143,-9.84389)">
    <circle
       style="opacity:1;fill:#fffff8;fill-opacity:1;stroke:none;stroke-width:1.7928741;stroke-linecap:round;stroke-linejoin:round;stroke-miterlimit:4;stroke-dasharray:none;stroke-opacity:1"
       id="path858"
       cx="-41.114876"
       cy="57.60508"
       r="40" />
    <path
       style="opacity:1;fill:#357edd;fill-opacity:1;stroke:none;stroke-width:2.10861993;stroke-linecap:round;stroke-linejoin:round;stroke-miterlimit:4;stroke-dasharray:none;stroke-opacity:1"
       d="M -215.45508 144.24609 C -217.38921 144.19385 -219.28514 145.17683 -220.32422 146.97656 L -242.14844 184.7793 C -243.65982 187.39709 -242.76818 190.72104 -240.15039 192.23242 L -202.34961 214.05664 C -199.73182 215.56802 -196.40787 214.67834 -194.89648 212.06055 L -173.07031 174.25781 C -171.55893 171.64002 -172.45057 168.31607 -175.06836 166.80469 L -212.86914 144.98047 C -213.6872 144.50816 -214.57593 144.26984 -215.45508 144.24609 z M -210.71289 160.66602 L -200.89258 166.33594 C -199.2501 167.28422 -197.82327 168.46951 -196.61133 169.89258 C -195.38505 171.2908 -194.49794 172.87242 -193.95117 174.63477 C -193.40435 176.39703 -193.25601 178.30685 -193.50586 180.36523 C -193.7415 182.399 -194.50003 184.525 -195.78125 186.74414 C -197.07667 188.98789 -198.61173 190.69915 -200.38672 191.87695 C -202.12406 193.04372 -203.95227 193.79691 -205.86914 194.13672 C -207.74833 194.46544 -209.63033 194.44728 -211.51562 194.08203 C -213.3631 193.70557 -215.03737 193.0838 -216.53906 192.2168 L -225.83008 186.85156 L -210.71289 160.66602 z M -208.71289 167.44336 L -218.96094 185.19727 L -215.6543 187.10742 C -214.26992 187.90669 -212.87389 188.49686 -211.46875 188.88086 C -210.0258 189.25355 -208.64762 189.35931 -207.33398 189.19727 C -206.00606 189.01056 -204.7642 188.51068 -203.60742 187.69922 C -202.41289 186.87657 -201.35303 185.66517 -200.42773 184.0625 C -199.51667 182.4845 -198.96877 180.99307 -198.7832 179.58789 C -198.59765 178.18274 -198.72772 176.89097 -199.17383 175.71289 C -199.58223 174.5237 -200.26776 173.43749 -201.23242 172.45312 C -202.15934 171.45757 -203.30316 170.56696 -204.66406 169.78125 L -208.71289 167.44336 z "
       transform="matrix(0.26458333,0,0,0.26458333,29.482143,9.84389)"
       id="rect823" />
    <path
       style="opacity:1;fill:#d5008f;fill-opacity:1;stroke:none;stroke-width:2.10862017;stroke-linecap:round;stroke-linejoin:round;stroke-miterlimit:4;stroke-dasharray:none;stroke-opacity:1"
       d="M -355.85547 162.22266 C -358.87823 162.22266 -361.3125 164.65692 -361.3125 167.67969 L -361.3125 211.33008 C -361.3125 214.35284 -358.87823 216.78516 -355.85547 216.78516 L -312.20508 216.78516 C -309.18231 216.78516 -306.75 214.35284 -306.75 211.33008 L -306.75 167.67969 C -306.75 164.65692 -309.18231 162.22266 -312.20508 162.22266 L -355.85547 162.22266 z M -333.94922 174.24805 C -331.70057 174.22202 -329.64279 174.56036 -327.77344 175.26367 C -325.90408 175.94101 -324.29211 176.94205 -322.9375 178.26953 C -321.58289 179.59708 -320.52615 181.19702 -319.76758 183.06641 C -319.009 184.93573 -318.62891 187.0214 -318.62891 189.32422 C -318.62891 191.5729 -319.009 193.61869 -319.76758 195.46094 C -320.52615 197.30318 -321.58289 198.8873 -322.9375 200.21484 C -324.29211 201.54241 -325.90408 202.58519 -327.77344 203.34375 C -329.64279 204.07522 -331.70057 204.45534 -333.94922 204.48242 C -336.17077 204.48242 -338.21658 204.13019 -340.08594 203.42578 C -341.9282 202.69428 -343.52625 201.67736 -344.88086 200.37695 C -346.20837 199.04946 -347.25118 197.46537 -348.00977 195.62305 C -348.76834 193.7808 -349.14844 191.73493 -349.14844 189.48633 C -349.14844 187.18345 -348.76834 185.09784 -348.00977 183.22852 C -347.25118 181.33205 -346.20837 179.72012 -344.88086 178.39258 C -343.52625 177.0651 -341.9282 176.04816 -340.08594 175.34375 C -338.21658 174.61226 -336.17077 174.24805 -333.94922 174.24805 z M -333.9082 178.87891 C -335.39827 178.87891 -336.75351 179.15125 -337.97266 179.69336 C -339.16471 180.20813 -340.1936 180.93852 -341.06055 181.88672 C -341.92749 182.80785 -342.60609 183.89241 -343.09375 185.13867 C -343.55431 186.38487 -343.7832 187.72621 -343.7832 189.16211 C -343.7832 190.70637 -343.55431 192.12733 -343.09375 193.42773 C -342.60611 194.72814 -341.92752 195.85252 -341.06055 196.80078 C -340.1936 197.74897 -339.16471 198.49524 -337.97266 199.03711 C -336.75351 199.57921 -335.39827 199.84961 -333.9082 199.84961 C -332.41813 199.84961 -331.06485 199.57921 -329.8457 199.03711 C -328.62655 198.49499 -327.58375 197.74871 -326.7168 196.80078 C -325.84985 195.85252 -325.18517 194.72814 -324.72461 193.42773 C -324.23697 192.12733 -323.99414 190.70637 -323.99414 189.16211 C -323.99414 187.72621 -324.23697 186.38487 -324.72461 185.13867 C -325.18517 183.89241 -325.84985 182.80785 -326.7168 181.88672 C -327.58375 180.93846 -328.62655 180.20807 -329.8457 179.69336 C -331.06485 179.15125 -332.41813 178.87891 -333.9082 178.87891 z "
       transform="matrix(0.26458333,0,0,0.26458333,29.482143,9.84389)"
       id="rect825" />
    <path
       style="opacity:1;fill:#777777;fill-opacity:1;stroke:none;stroke-width:2.10862017;stroke-linecap:round;stroke-linejoin:round;stroke-miterlimit:4;stroke-dasharray:none;stroke-opacity:1"
       d="M -287.13086 151.1875 C -289.45713 151.27725 -291.54403 152.85816 -292.17969 155.23047 L -303.47852 197.39258 C -304.26086 200.31234 -302.53891 203.29382 -299.61914 204.07617 L -257.45703 215.37305 C -254.53727 216.1554 -251.55579 214.43539 -250.77344 211.51562 L -239.47656 169.35156 C -238.69421 166.4318 -240.41617 163.45227 -243.33594 162.66992 L -285.49805 151.37305 C -286.0455 151.22636 -286.59403 151.16679 -287.13086 151.1875 z M -270 168.54492 C -268.67886 168.53484 -267.37805 168.70177 -266.0957 169.04492 C -264.63016 169.43761 -263.27676 170.03988 -262.03516 170.84961 C -260.76739 171.66634 -259.72024 172.73185 -258.89453 174.04688 L -263.52539 176.88672 C -263.84544 175.98752 -264.40645 175.24857 -265.20508 174.66992 C -265.9705 174.07203 -266.83639 173.64226 -267.80469 173.38281 C -268.38047 173.22861 -268.96035 173.14358 -269.54492 173.12695 C -270.10335 173.11687 -270.64395 173.19591 -271.16602 173.36523 C -271.6619 173.54086 -272.10428 173.82946 -272.49219 174.23047 C -272.87316 174.60545 -273.14816 175.10647 -273.31641 175.73438 C -273.56885 176.67651 -273.43315 177.48377 -272.91211 178.15625 C -272.39109 178.82883 -271.69631 179.47963 -270.82617 180.10547 C -269.95607 180.73143 -268.99006 181.36894 -267.92969 182.01758 C -266.86933 182.66622 -265.9359 183.41977 -265.12891 184.28125 C -264.3218 185.14233 -263.7256 186.15803 -263.33789 187.32812 C -262.9501 188.49789 -262.9762 189.90791 -263.41797 191.55664 C -263.81767 193.04837 -264.44382 194.28363 -265.29492 195.26172 C -266.13899 196.21358 -267.12907 196.92978 -268.26758 197.41016 C -269.37988 197.89749 -270.60151 198.15855 -271.92969 198.19531 C -273.2579 198.23235 -274.60203 198.06787 -275.96289 197.70312 C -277.69013 197.24031 -279.2747 196.5075 -280.7168 195.50391 C -282.15889 194.50032 -283.27366 193.16343 -284.06055 191.49414 L -279.36328 188.88281 C -279.00679 189.9601 -278.414 190.88908 -277.58594 191.67188 C -276.7247 192.43562 -275.74564 192.96526 -274.64648 193.25977 C -274.07071 193.41397 -273.47326 193.49105 -272.85547 193.48828 C -272.23756 193.48576 -271.65078 193.38889 -271.0957 193.20117 C -270.5406 193.01371 -270.05679 192.72436 -269.64258 192.33008 C -269.22148 191.90992 -268.9261 191.38589 -268.75781 190.75781 C -268.48434 189.73721 -268.60043 188.86361 -269.10742 188.13867 C -269.61446 187.41393 -270.30373 186.73925 -271.17383 186.11328 C -272.03703 185.46156 -272.99833 184.81116 -274.05859 184.16211 C -275.11896 183.51347 -276.05708 182.77082 -276.87109 181.93555 C -277.67819 181.07447 -278.27911 180.07165 -278.67383 178.92773 C -279.06161 177.7579 -279.03358 176.34985 -278.5918 174.70117 C -278.20611 173.26175 -277.58479 172.0957 -276.72852 171.20312 C -275.84611 170.31768 -274.8432 169.66044 -273.71875 169.23242 C -272.56111 168.78528 -271.32117 168.55555 -270 168.54492 z "
       transform="matrix(0.26458333,0,0,0.26458333,29.482143,9.84389)"
       id="rect1122" />
  </g>
</svg>
