<?xml version="1.0" encoding="UTF-8" standalone="no"?>
<!-- Created with Inkscape (http://www.inkscape.org/) -->

<svg
   xmlns:dc="http://purl.org/dc/elements/1.1/"
   xmlns:cc="http://creativecommons.org/ns#"
   xmlns:rdf="http://www.w3.org/1999/02/22-rdf-syntax-ns#"
   xmlns:svg="http://www.w3.org/2000/svg"
   xmlns="http://www.w3.org/2000/svg"
   xmlns:sodipodi="http://sodipodi.sourceforge.net/DTD/sodipodi-0.dtd"
   xmlns:inkscape="http://www.inkscape.org/namespaces/inkscape"
   width="261.14374mm"
   height="261.14374mm"
   viewBox="0 0 261.14374 261.14374"
   version="1.1"
   id="svg8"
   inkscape:version="0.92.2 5c3e80d, 2017-08-06"
   sodipodi:docname="OSD_logo_favicon.svg"
   inkscape:export-filename="/Users/lucacorsato/Documents/osd/website/openstrategydata/assets/img/OSD_logo_2.png"
   inkscape:export-xdpi="300"
   inkscape:export-ydpi="300">
  <defs
     id="defs2" />
  <sodipodi:namedview
     id="base"
     pagecolor="#ffffff"
     bordercolor="#666666"
     borderopacity="1.0"
     inkscape:pageopacity="0.0"
     inkscape:pageshadow="2"
     inkscape:zoom="0.6818109"
     inkscape:cx="230.14686"
     inkscape:cy="652.87528"
     inkscape:document-units="mm"
     inkscape:current-layer="layer1"
     showgrid="false"
     inkscape:snap-bbox="true"
     inkscape:bbox-paths="true"
     inkscape:bbox-nodes="true"
     inkscape:snap-bbox-edge-midpoints="true"
     inkscape:snap-bbox-midpoints="true"
     inkscape:object-paths="true"
     inkscape:snap-intersection-paths="true"
     inkscape:window-width="1920"
     inkscape:window-height="1097"
     inkscape:window-x="0"
     inkscape:window-y="1"
     inkscape:window-maximized="1"
     fit-margin-top="0"
     fit-margin-left="0"
     fit-margin-right="0"
     fit-margin-bottom="0" />
  <metadata
     id="metadata5">
    <rdf:RDF>
      <cc:Work
         rdf:about="">
        <dc:format>image/svg+xml</dc:format>
        <dc:type
           rdf:resource="http://purl.org/dc/dcmitype/StillImage" />
        <dc:title></dc:title>
      </cc:Work>
    </rdf:RDF>
  </metadata>
  <g
     inkscape:label="Livello 1"
     inkscape:groupmode="layer"
     id="layer1"
     transform="translate(36.089729,80.727978)">
    <circle
       style="opacity:1;fill:#fffff8;fill-opacity:1;stroke:none;stroke-width:7.66316462;stroke-linecap:round;stroke-linejoin:round;stroke-miterlimit:4;stroke-dasharray:none;stroke-opacity:1"
       id="path858"
       cx="94.48214"
       cy="49.843891"
       r="130.57187" />
    <g
       id="g1378"
       style="fill:#777777;fill-opacity:1"
       transform="matrix(1.246849,0,0,1.246849,11.155232,-96.085111)">
      <path
         d="m 39.482143,57.089988 q 0,-3.5386 1.16563,-6.411 1.16564,-2.9141 3.20549,-4.954 2.08149,-2.0398 4.91231,-3.1222 2.87245,-1.124 6.28609,-1.124 3.455269,-0.04 6.327719,1.0407 2.87245,1.0408 4.95394,3.0806 2.08149,2.0399 3.24712,4.9124 1.16563,2.8724 1.16563,6.4109 0,3.4553 -1.16563,6.286099 -1.16563,2.8308 -3.24712,4.8707 -2.08149,2.0399 -4.95394,3.2055 -2.87245,1.124 -6.327719,1.1656 -3.41364,0 -6.28609,-1.0824 -2.83082,-1.124 -4.91231,-3.1222 -2.03985,-2.0398 -3.20549,-4.8707 -1.16563,-2.830799 -1.16563,-6.285999 z m 5.49513,-0.333 q 0,2.3729 0.7077,4.3711 0.7493,1.998199 2.08149,3.455299 1.33215,1.457 3.16386,2.2896 1.87334,0.833 4.16297,0.833 2.289639,0 4.162969,-0.833 1.87334,-0.833 3.2055,-2.2896 1.33215,-1.4571 2.03985,-3.455299 0.7493,-1.9982 0.7493,-4.3711 0,-2.2064 -0.7493,-4.1213 -0.7077,-1.915 -2.03985,-3.3304 -1.33216,-1.4571 -3.2055,-2.248 -1.87333,-0.833 -4.162969,-0.833 -2.28963,0 -4.16297,0.833 -1.83171,0.791 -3.16386,2.248 -1.33215,1.4154 -2.08149,3.3304 -0.7077,1.9149 -0.7077,4.1213 z"
         style="font-style:normal;font-variant:normal;font-weight:900;font-stretch:normal;font-size:medium;line-height:125%;font-family:Avenir;-inkscape-font-specification:'Avenir Heavy';letter-spacing:-0.86518753px;word-spacing:0px;fill:#777777;fill-opacity:1;stroke:none;stroke-width:1.04074335px;stroke-linecap:butt;stroke-linejoin:miter;stroke-opacity:1"
         id="path831"
         inkscape:connector-curvature="0" />
      <path
         d="m 86.824912,48.555888 q -0.8326,-1.2073 -2.24801,-1.7485 -1.37378,-0.583 -2.91408,-0.583 -0.9159,0 -1.79008,0.208 -0.8326,0.208 -1.5403,0.666 -0.6661,0.458 -1.08237,1.2073 -0.4163,0.708 -0.4163,1.7068 0,1.4987 1.04074,2.2896 1.04075,0.791 2.58105,1.3738 1.5403,0.583 3.37201,1.124 1.8317,0.541 3.37201,1.4987 1.540299,0.957 2.581039,2.5394 1.04074,1.5819 1.04074,4.204599 0,2.3729 -0.8742,4.163 -0.8742,1.7484 -2.372899,2.9141 -1.45704,1.1656 -3.41364,1.7484 -1.95659,0.583 -4.12134,0.583 -2.74756,0 -5.28698,-0.916 -2.53941,-0.916 -4.37112,-3.0806 l 3.95483,-3.83 q 0.9575,1.4571 2.49778,2.2896 1.58193,0.791 3.33038,0.791 0.9159,0 1.83171,-0.25 0.9159,-0.25 1.66519,-0.749 0.7493,-0.499 1.20726,-1.2489 0.4579,-0.791 0.4579,-1.7901 0,-1.623499 -1.04075,-2.497799 -1.04074,-0.874 -2.58104,-1.457 -1.5403,-0.624 -3.37201,-1.1656 -1.83171,-0.541 -3.37201,-1.457 -1.5403,-0.957 -2.58104,-2.4978 -1.04074,-1.582 -1.04074,-4.2046 0,-2.2897 0.9159,-3.9549 0.9575,-1.6651 2.45616,-2.7475 1.54029,-1.124 3.49689,-1.6652 1.9566,-0.541 3.99646,-0.541 2.33126,0 4.49601,0.708 2.206369,0.708 3.954819,2.3313 z"
         style="font-style:normal;font-variant:normal;font-weight:900;font-stretch:normal;font-size:medium;line-height:125%;font-family:Avenir;-inkscape-font-specification:'Avenir Heavy';letter-spacing:-0.86518753px;word-spacing:0px;fill:#777777;fill-opacity:1;stroke:none;stroke-width:1.04074335px;stroke-linecap:butt;stroke-linejoin:miter;stroke-opacity:1"
         id="path833"
         inkscape:connector-curvature="0" />
      <path
         d="m 92.880731,41.478888 h 11.614699 q 2.91408,0 5.62002,0.962562 2.70593,0.918427 4.78742,2.843445 2.08148,1.924808 3.33038,4.855788 1.24889,2.887265 1.24889,6.824416 0,3.980865 -1.45704,6.911738 -1.41541,2.887265 -3.70505,4.812074 -2.24801,1.881092 -5.0372,2.84355 -2.74756,0.918426 -5.41186,0.918426 H 92.880731 Z m 9.158549,25.985068 q 2.45615,0 4.6209,-0.5685 2.20638,-0.612634 3.82994,-1.837379 1.62356,-1.268564 2.53941,-3.237085 0.9575,-2.012343 0.9575,-4.855788 0,-2.799731 -0.8326,-4.812074 -0.8326,-2.012342 -2.33127,-3.237191 -1.45704,-1.268669 -3.4969,-1.83738 -1.99823,-0.612634 -4.41275,-0.612634 h -4.787419 v 20.998031 z"
         style="font-style:normal;font-variant:normal;font-weight:900;font-stretch:normal;font-size:medium;line-height:125%;font-family:Avenir;-inkscape-font-specification:'Avenir Heavy';letter-spacing:-0.86518753px;word-spacing:0px;fill:#777777;fill-opacity:1;stroke:none;stroke-width:1.06686687px;stroke-linecap:butt;stroke-linejoin:miter;stroke-opacity:1"
         id="path835"
         inkscape:connector-curvature="0" />
    </g>
    <rect
       y="-53.397236"
       x="-173.41641"
       height="46.599277"
       width="46.599277"
       id="rect823"
       style="opacity:1;fill:#357edd;fill-opacity:1;stroke:none;stroke-width:1.80087304;stroke-linecap:round;stroke-linejoin:round;stroke-miterlimit:4;stroke-dasharray:none;stroke-opacity:1"
       transform="matrix(-0.8660254,-0.50000001,-0.50000001,0.8660254,0,0)"
       rx="4.6599278"
       ry="4.6599278" />
    <rect
       style="opacity:1;fill:#d5008f;fill-opacity:1;stroke:none;stroke-width:1.80087316;stroke-linecap:round;stroke-linejoin:round;stroke-miterlimit:4;stroke-dasharray:none;stroke-opacity:1"
       id="rect825"
       width="46.599281"
       height="46.599281"
       x="-60.383503"
       y="34.221703"
       transform="scale(-1,1)"
       rx="4.6599278"
       ry="4.6599278" />
    <rect
       ry="4.6599278"
       rx="4.6599278"
       transform="matrix(-0.96592582,-0.25881906,-0.25881906,0.96592582,0,0)"
       y="3.7786403"
       x="-124.25546"
       height="46.599281"
       width="46.599281"
       id="rect1122"
       style="opacity:1;fill:#777777;fill-opacity:1;stroke:none;stroke-width:1.80087316;stroke-linecap:round;stroke-linejoin:round;stroke-miterlimit:4;stroke-dasharray:none;stroke-opacity:1" />
  </g>
</svg>
