<?xml version="1.0" encoding="UTF-8" standalone="no"?>
<!-- Created with Inkscape (http://www.inkscape.org/) -->

<svg
   xmlns:dc="http://purl.org/dc/elements/1.1/"
   xmlns:cc="http://creativecommons.org/ns#"
   xmlns:rdf="http://www.w3.org/1999/02/22-rdf-syntax-ns#"
   xmlns:svg="http://www.w3.org/2000/svg"
   xmlns="http://www.w3.org/2000/svg"
   xmlns:sodipodi="http://sodipodi.sourceforge.net/DTD/sodipodi-0.dtd"
   xmlns:inkscape="http://www.inkscape.org/namespaces/inkscape"
   width="130mm"
   height="80mm"
   viewBox="0 0 130 80"
   version="1.1"
   id="svg8"
   inkscape:version="0.92.2 5c3e80d, 2017-08-06"
   sodipodi:docname="OSD_logo_2.svg"
   inkscape:export-filename="/Users/lucacorsato/Documents/osd/website/openstrategydata/assets/img/OSD_logo_1.png"
   inkscape:export-xdpi="300"
   inkscape:export-ydpi="300">
  <defs
     id="defs2" />
  <sodipodi:namedview
     id="base"
     pagecolor="#ffffff"
     bordercolor="#666666"
     borderopacity="1.0"
     inkscape:pageopacity="0.0"
     inkscape:pageshadow="2"
     inkscape:zoom="1.9284524"
     inkscape:cx="236.88608"
     inkscape:cy="70.208277"
     inkscape:document-units="mm"
     inkscape:current-layer="layer1"
     showgrid="false"
     inkscape:snap-bbox="true"
     inkscape:bbox-paths="true"
     inkscape:bbox-nodes="true"
     inkscape:snap-bbox-edge-midpoints="true"
     inkscape:snap-bbox-midpoints="true"
     inkscape:object-paths="true"
     inkscape:snap-intersection-paths="true"
     inkscape:window-width="1920"
     inkscape:window-height="1097"
     inkscape:window-x="0"
     inkscape:window-y="1"
     inkscape:window-maximized="1"
     fit-margin-top="0"
     fit-margin-left="0"
     fit-margin-right="0"
     fit-margin-bottom="0" />
  <metadata
     id="metadata5">
    <rdf:RDF>
      <cc:Work
         rdf:about="">
        <dc:format>image/svg+xml</dc:format>
        <dc:type
           rdf:resource="http://purl.org/dc/dcmitype/StillImage" />
        <dc:title></dc:title>
      </cc:Work>
    </rdf:RDF>
  </metadata>
  <g
     inkscape:label="Livello 1"
     inkscape:groupmode="layer"
     id="layer1"
     transform="translate(-29.482143,-26.964279)">
    <path
       inkscape:connector-curvature="0"
       id="path831"
       style="font-style:normal;font-variant:normal;font-weight:900;font-stretch:normal;font-size:medium;line-height:125%;font-family:Avenir;-inkscape-font-specification:'Avenir Heavy';letter-spacing:-0.86518753px;word-spacing:0px;fill:#000000;fill-opacity:1;stroke:none;stroke-width:1.04074335px;stroke-linecap:butt;stroke-linejoin:miter;stroke-opacity:1"
       d="m 29.482143,67.089987 q 0,-3.5386 1.16563,-6.411 1.16564,-2.9141 3.20549,-4.954 2.08149,-2.0398 4.91231,-3.1222 2.87245,-1.124 6.28609,-1.124 3.455269,-0.04 6.327719,1.0407 2.87245,1.0408 4.95394,3.0806 2.08149,2.0399 3.24712,4.9124 1.16563,2.8724 1.16563,6.4109 0,3.4553 -1.16563,6.286099 -1.16563,2.8308 -3.24712,4.8707 -2.08149,2.0399 -4.95394,3.2055 -2.87245,1.124 -6.327719,1.1656 -3.41364,0 -6.28609,-1.0824 -2.83082,-1.124 -4.91231,-3.1222 -2.03985,-2.0398 -3.20549,-4.8707 -1.16563,-2.830799 -1.16563,-6.285999 z m 5.49513,-0.333 q 0,2.3729 0.7077,4.3711 0.7493,1.998199 2.08149,3.455299 1.33215,1.457 3.16386,2.2896 1.87334,0.833 4.16297,0.833 2.289639,0 4.162969,-0.833 1.87334,-0.833 3.2055,-2.2896 1.33215,-1.4571 2.03985,-3.455299 0.7493,-1.9982 0.7493,-4.3711 0,-2.2064 -0.7493,-4.1213 -0.7077,-1.915 -2.03985,-3.3304 -1.33216,-1.4571 -3.2055,-2.248 -1.87333,-0.833 -4.162969,-0.833 -2.28963,0 -4.16297,0.833 -1.83171,0.791 -3.16386,2.248 -1.33215,1.4154 -2.08149,3.3304 -0.7077,1.9149 -0.7077,4.1213 z" />
    <path
       inkscape:connector-curvature="0"
       id="path833"
       style="font-style:normal;font-variant:normal;font-weight:900;font-stretch:normal;font-size:medium;line-height:125%;font-family:Avenir;-inkscape-font-specification:'Avenir Heavy';letter-spacing:-0.86518753px;word-spacing:0px;fill:#000000;fill-opacity:1;stroke:none;stroke-width:1.04074335px;stroke-linecap:butt;stroke-linejoin:miter;stroke-opacity:1"
       d="m 76.824912,58.555887 q -0.8326,-1.2073 -2.24801,-1.7485 -1.37378,-0.583 -2.91408,-0.583 -0.9159,0 -1.79008,0.208 -0.8326,0.208 -1.5403,0.666 -0.6661,0.458 -1.08237,1.2073 -0.4163,0.708 -0.4163,1.7068 0,1.4987 1.04074,2.2896 1.04075,0.791 2.58105,1.3738 1.5403,0.583 3.37201,1.124 1.8317,0.541 3.37201,1.4987 1.540299,0.957 2.581039,2.5394 1.04074,1.5819 1.04074,4.204599 0,2.3729 -0.8742,4.163 -0.8742,1.7484 -2.372899,2.9141 -1.45704,1.1656 -3.41364,1.7484 -1.95659,0.583 -4.12134,0.583 -2.74756,0 -5.28698,-0.916 -2.53941,-0.916 -4.37112,-3.0806 l 3.95483,-3.83 q 0.9575,1.4571 2.49778,2.2896 1.58193,0.791 3.33038,0.791 0.9159,0 1.83171,-0.25 0.9159,-0.25 1.66519,-0.749 0.7493,-0.499 1.20726,-1.2489 0.4579,-0.791 0.4579,-1.7901 0,-1.623499 -1.04075,-2.497799 -1.04074,-0.874 -2.58104,-1.457 -1.5403,-0.624 -3.37201,-1.1656 -1.83171,-0.541 -3.37201,-1.457 -1.5403,-0.957 -2.58104,-2.4978 -1.04074,-1.582 -1.04074,-4.2046 0,-2.2897 0.9159,-3.9549 0.9575,-1.6651 2.45616,-2.7475 1.54029,-1.124 3.49689,-1.6652 1.9566,-0.541 3.99646,-0.541 2.33126,0 4.49601,0.708 2.206369,0.708 3.954819,2.3313 z" />
    <path
       inkscape:connector-curvature="0"
       id="path835"
       style="font-style:normal;font-variant:normal;font-weight:900;font-stretch:normal;font-size:medium;line-height:125%;font-family:Avenir;-inkscape-font-specification:'Avenir Heavy';letter-spacing:-0.86518753px;word-spacing:0px;fill:#000000;fill-opacity:1;stroke:none;stroke-width:1.04074335px;stroke-linecap:butt;stroke-linejoin:miter;stroke-opacity:1"
       d="m 82.880731,52.228087 h 11.6147 q 2.91408,0 5.620019,0.916 2.70593,0.874 4.78742,2.7059 2.08148,1.8317 3.33038,4.6209 1.24889,2.7476 1.24889,6.4943 0,3.7883 -1.45704,6.577399 -1.41541,2.7476 -3.70505,4.5793 -2.24801,1.7901 -5.037199,2.706 -2.74756,0.874 -5.41186,0.874 h -10.99026 z m 9.15855,24.728099 q 2.45615,0 4.6209,-0.541 2.20638,-0.583 3.829939,-1.7485 1.62356,-1.2072 2.53941,-3.080499 0.9575,-1.915 0.9575,-4.6209 0,-2.6643 -0.8326,-4.5793 -0.8326,-1.915 -2.33127,-3.0806 -1.457039,-1.2073 -3.496899,-1.7485 -1.99823,-0.583 -4.41275,-0.583 h -4.78742 v 19.982299 z" />
    <g
       id="g1248"
       transform="matrix(0.98750001,0,0,0.98750001,0.76327468,1.1230456)">
      <path
         d="m 61.381134,88.275507 h 0.620264 q 0.358867,0 0.620264,-0.106331 0.265827,-0.110762 0.438615,-0.28798 0.177219,-0.181649 0.261397,-0.407602 0.08418,-0.230384 0.08418,-0.474059 0,-0.243675 -0.08418,-0.469628 -0.08418,-0.230384 -0.261397,-0.407602 -0.172788,-0.181649 -0.438615,-0.28798 -0.261397,-0.110762 -0.620264,-0.110762 h -0.620264 z m -0.318993,-2.844354 h 1.041158 q 0.29241,0 0.58482,0.09747 0.296841,0.09747 0.531655,0.296841 0.239244,0.19494 0.38545,0.491781 0.146205,0.29241 0.146205,0.68229 0,0.394311 -0.146205,0.686721 -0.146206,0.29241 -0.38545,0.491781 -0.234814,0.19494 -0.531655,0.29241 -0.29241,0.09747 -0.58482,0.09747 h -1.041158 z"
         style="font-style:normal;font-variant:normal;font-weight:normal;font-stretch:normal;font-size:medium;line-height:125%;font-family:Avenir;-inkscape-font-specification:Avenir;letter-spacing:0px;word-spacing:0px;fill:#000000;fill-opacity:1;stroke:none;stroke-width:0.1107614px;stroke-linecap:butt;stroke-linejoin:miter;stroke-opacity:1"
         id="path1129"
         inkscape:connector-curvature="0" />
      <path
         d="m 65.458193,87.53562 q -0.110762,0 -0.279119,0.01329 -0.163927,0.0089 -0.318993,0.05316 -0.150635,0.03987 -0.261397,0.128483 -0.106331,0.08861 -0.106331,0.243676 0,0.1019 0.03987,0.177218 0.0443,0.07089 0.115192,0.119622 0.07089,0.04431 0.155066,0.06646 0.08861,0.01772 0.177219,0.01772 0.159496,0 0.274688,-0.05317 0.119622,-0.05316 0.19937,-0.141774 0.07975,-0.09304 0.115192,-0.212662 0.03987,-0.124053 0.03987,-0.261397 V 87.53562 Z m 0.150635,-0.239244 v -0.05317 q 0,-0.536085 -0.531654,-0.536085 -0.363298,0 -0.633556,0.243675 L 64.2664,86.742569 q 0.29241,-0.301272 0.87723,-0.301272 0.150636,0 0.28798,0.0443 0.141775,0.0443 0.243675,0.137344 0.101901,0.08861 0.163927,0.225954 0.06203,0.137344 0.06203,0.327853 v 0.925966 q 0,0.119622 0.0089,0.252536 0.01329,0.128483 0.02658,0.212662 h -0.283549 q -0.01329,-0.07532 -0.02215,-0.163927 -0.0044,-0.08861 -0.0044,-0.172788 h -0.0089 q -0.128483,0.208232 -0.305701,0.301271 -0.172788,0.08861 -0.425324,0.08861 -0.137344,0 -0.265828,-0.03987 -0.128483,-0.03544 -0.230383,-0.110761 -0.09747,-0.07975 -0.159497,-0.19051 -0.0576,-0.115192 -0.0576,-0.265827 0,-0.252536 0.128484,-0.394311 0.132913,-0.146205 0.327853,-0.217092 0.199371,-0.07089 0.420894,-0.08861 0.225953,-0.01772 0.412032,-0.01772 z"
         style="font-style:normal;font-variant:normal;font-weight:normal;font-stretch:normal;font-size:medium;line-height:125%;font-family:Avenir;-inkscape-font-specification:Avenir;letter-spacing:0px;word-spacing:0px;fill:#000000;fill-opacity:1;stroke:none;stroke-width:0.1107614px;stroke-linecap:butt;stroke-linejoin:miter;stroke-opacity:1"
         id="path1131"
         inkscape:connector-curvature="0" />
      <path
         d="m 67.653623,86.76029 h -0.598112 v 1.222807 q 0,0.115191 0.02215,0.190509 0.02215,0.07089 0.06203,0.110762 0.03987,0.03987 0.09304,0.0576 0.0576,0.01329 0.124053,0.01329 0.07532,0 0.155066,-0.02215 0.07975,-0.02215 0.146205,-0.0576 l 0.01329,0.270258 q -0.163927,0.07532 -0.394311,0.07532 -0.08418,0 -0.177218,-0.02215 -0.08861,-0.02215 -0.163927,-0.08418 -0.07532,-0.06203 -0.124053,-0.168357 -0.04873,-0.106331 -0.04873,-0.279119 v -1.30699 h -0.438615 v -0.265827 h 0.438615 v -0.58482 h 0.29241 v 0.58482 h 0.598112 z"
         style="font-style:normal;font-variant:normal;font-weight:normal;font-stretch:normal;font-size:medium;line-height:125%;font-family:Avenir;-inkscape-font-specification:Avenir;letter-spacing:0px;word-spacing:0px;fill:#000000;fill-opacity:1;stroke:none;stroke-width:0.1107614px;stroke-linecap:butt;stroke-linejoin:miter;stroke-opacity:1"
         id="path1133"
         inkscape:connector-curvature="0" />
      <path
         d="m 69.231004,87.53562 q -0.110761,0 -0.279119,0.01329 -0.163927,0.0089 -0.318993,0.05316 -0.150635,0.03987 -0.261397,0.128483 -0.106331,0.08861 -0.106331,0.243676 0,0.1019 0.03987,0.177218 0.0443,0.07089 0.115191,0.119622 0.07089,0.04431 0.155066,0.06646 0.08861,0.01772 0.177219,0.01772 0.159496,0 0.274688,-0.05317 0.119622,-0.05316 0.199371,-0.141774 0.07975,-0.09304 0.115191,-0.212662 0.03988,-0.124053 0.03988,-0.261397 V 87.53562 Z m 0.150636,-0.239244 v -0.05317 q 0,-0.536085 -0.531655,-0.536085 -0.363298,0 -0.633556,0.243675 l -0.177218,-0.208231 q 0.29241,-0.301272 0.877231,-0.301272 0.150635,0 0.287979,0.0443 0.141775,0.0443 0.243675,0.137344 0.101901,0.08861 0.163927,0.225954 0.06203,0.137344 0.06203,0.327853 v 0.925966 q 0,0.119622 0.0089,0.252536 0.01329,0.128483 0.02658,0.212662 h -0.283549 q -0.01329,-0.07532 -0.02215,-0.163927 -0.0044,-0.08861 -0.0044,-0.172788 h -0.0089 q -0.128484,0.208232 -0.305702,0.301271 -0.172788,0.08861 -0.425324,0.08861 -0.137344,0 -0.265827,-0.03987 -0.128484,-0.03544 -0.230384,-0.110761 -0.09747,-0.07975 -0.159497,-0.19051 -0.0576,-0.115192 -0.0576,-0.265827 0,-0.252536 0.128484,-0.394311 0.132913,-0.146205 0.327854,-0.217092 0.19937,-0.07089 0.420893,-0.08861 0.225953,-0.01772 0.412033,-0.01772 z"
         style="font-style:normal;font-variant:normal;font-weight:normal;font-stretch:normal;font-size:medium;line-height:125%;font-family:Avenir;-inkscape-font-specification:Avenir;letter-spacing:0px;word-spacing:0px;fill:#000000;fill-opacity:1;stroke:none;stroke-width:0.1107614px;stroke-linecap:butt;stroke-linejoin:miter;stroke-opacity:1"
         id="path1135"
         inkscape:connector-curvature="0" />
      <path
         d="m 72.761525,87.53562 q -0.110761,0 -0.279119,0.01329 -0.163927,0.0089 -0.318993,0.05316 -0.150635,0.03987 -0.261397,0.128483 -0.106331,0.08861 -0.106331,0.243676 0,0.1019 0.03987,0.177218 0.0443,0.07089 0.115192,0.119622 0.07089,0.04431 0.155066,0.06646 0.08861,0.01772 0.177219,0.01772 0.159496,0 0.274688,-0.05317 0.119622,-0.05316 0.199371,-0.141774 0.07975,-0.09304 0.115191,-0.212662 0.03987,-0.124053 0.03987,-0.261397 V 87.53562 Z m 0.150636,-0.239244 v -0.05317 q 0,-0.536085 -0.531655,-0.536085 -0.363298,0 -0.633556,0.243675 l -0.177218,-0.208231 q 0.29241,-0.301272 0.877231,-0.301272 0.150635,0 0.287979,0.0443 0.141775,0.0443 0.243675,0.137344 0.101901,0.08861 0.163927,0.225954 0.06203,0.137344 0.06203,0.327853 v 0.925966 q 0,0.119622 0.0089,0.252536 0.01329,0.128483 0.02658,0.212662 h -0.283549 q -0.01329,-0.07532 -0.02215,-0.163927 -0.0044,-0.08861 -0.0044,-0.172788 h -0.0089 q -0.128483,0.208232 -0.305701,0.301271 -0.172788,0.08861 -0.425324,0.08861 -0.137344,0 -0.265827,-0.03987 -0.128484,-0.03544 -0.230384,-0.110761 -0.09747,-0.07975 -0.159497,-0.19051 -0.0576,-0.115192 -0.0576,-0.265827 0,-0.252536 0.128484,-0.394311 0.132913,-0.146205 0.327853,-0.217092 0.199371,-0.07089 0.420894,-0.08861 0.225953,-0.01772 0.412032,-0.01772 z"
         style="font-style:normal;font-variant:normal;font-weight:normal;font-stretch:normal;font-size:medium;line-height:125%;font-family:Avenir;-inkscape-font-specification:Avenir;letter-spacing:0px;word-spacing:0px;fill:#000000;fill-opacity:1;stroke:none;stroke-width:0.1107614px;stroke-linecap:butt;stroke-linejoin:miter;stroke-opacity:1"
         id="path1137"
         inkscape:connector-curvature="0" />
      <path
         d="m 74.983537,86.986244 q -0.06646,-0.128484 -0.177218,-0.203801 -0.110761,-0.07532 -0.270258,-0.07532 -0.07532,0 -0.155066,0.01772 -0.07532,0.01772 -0.137344,0.0576 -0.06203,0.03544 -0.1019,0.09304 -0.03544,0.0576 -0.03544,0.141775 0,0.146205 0.1019,0.212662 0.101901,0.06646 0.305702,0.115192 l 0.296841,0.07089 q 0.217092,0.04873 0.358867,0.199371 0.146205,0.146205 0.146205,0.367728 0,0.168357 -0.07089,0.29241 -0.06646,0.119622 -0.181648,0.19937 -0.110762,0.07532 -0.256967,0.110762 -0.146205,0.03544 -0.296841,0.03544 -0.239244,0 -0.447476,-0.08861 -0.203801,-0.09304 -0.350006,-0.314562 l 0.252536,-0.172788 q 0.08861,0.141775 0.221523,0.225953 0.137344,0.08418 0.323423,0.08418 0.08861,0 0.177219,-0.01772 0.08861,-0.02215 0.155066,-0.06203 0.07089,-0.04431 0.110761,-0.110762 0.04431,-0.06646 0.04431,-0.155066 0,-0.155066 -0.115192,-0.221523 -0.115192,-0.07089 -0.279119,-0.110761 l -0.283549,-0.06646 q -0.05317,-0.01329 -0.146205,-0.0443 -0.08861,-0.03101 -0.177219,-0.09304 -0.08418,-0.06203 -0.146205,-0.159496 -0.06203,-0.101901 -0.06203,-0.248106 0,-0.159497 0.06203,-0.279119 0.06646,-0.119622 0.172788,-0.19494 0.110762,-0.07532 0.248106,-0.110761 0.137344,-0.03987 0.283549,-0.03987 0.217092,0 0.403172,0.08418 0.186079,0.08418 0.287979,0.28798 z"
         style="font-style:normal;font-variant:normal;font-weight:normal;font-stretch:normal;font-size:medium;line-height:125%;font-family:Avenir;-inkscape-font-specification:Avenir;letter-spacing:0px;word-spacing:0px;fill:#000000;fill-opacity:1;stroke:none;stroke-width:0.1107614px;stroke-linecap:butt;stroke-linejoin:miter;stroke-opacity:1"
         id="path1139"
         inkscape:connector-curvature="0" />
      <path
         d="m 76.869942,86.986244 q -0.06646,-0.128484 -0.177218,-0.203801 -0.110761,-0.07532 -0.270258,-0.07532 -0.07532,0 -0.155066,0.01772 -0.07532,0.01772 -0.137344,0.0576 -0.06203,0.03544 -0.1019,0.09304 -0.03544,0.0576 -0.03544,0.141775 0,0.146205 0.1019,0.212662 0.101901,0.06646 0.305702,0.115192 l 0.296841,0.07089 q 0.217092,0.04873 0.358867,0.199371 0.146205,0.146205 0.146205,0.367728 0,0.168357 -0.07089,0.29241 -0.06646,0.119622 -0.181648,0.19937 -0.110762,0.07532 -0.256967,0.110762 -0.146205,0.03544 -0.296841,0.03544 -0.239244,0 -0.447476,-0.08861 -0.203801,-0.09304 -0.350006,-0.314562 l 0.252536,-0.172788 q 0.08861,0.141775 0.221523,0.225953 0.137344,0.08418 0.323423,0.08418 0.08861,0 0.177219,-0.01772 0.08861,-0.02215 0.155066,-0.06203 0.07089,-0.04431 0.110761,-0.110762 0.04431,-0.06646 0.04431,-0.155066 0,-0.155066 -0.115192,-0.221523 -0.115192,-0.07089 -0.279119,-0.110761 l -0.283549,-0.06646 q -0.05317,-0.01329 -0.146205,-0.0443 -0.08861,-0.03101 -0.177219,-0.09304 -0.08418,-0.06203 -0.146205,-0.159496 -0.06203,-0.101901 -0.06203,-0.248106 0,-0.159497 0.06203,-0.279119 0.06646,-0.119622 0.172788,-0.19494 0.110762,-0.07532 0.248106,-0.110761 0.137344,-0.03987 0.283549,-0.03987 0.217092,0 0.403172,0.08418 0.186079,0.08418 0.287979,0.28798 z"
         style="font-style:normal;font-variant:normal;font-weight:normal;font-stretch:normal;font-size:medium;line-height:125%;font-family:Avenir;-inkscape-font-specification:Avenir;letter-spacing:0px;word-spacing:0px;fill:#000000;fill-opacity:1;stroke:none;stroke-width:0.1107614px;stroke-linecap:butt;stroke-linejoin:miter;stroke-opacity:1"
         id="path1141"
         inkscape:connector-curvature="0" />
      <path
         d="m 79.270281,87.371693 q 0,-0.29684 -0.177218,-0.478489 -0.177218,-0.186079 -0.496211,-0.186079 -0.141775,0 -0.274688,0.0576 -0.132914,0.05317 -0.234815,0.146205 -0.09747,0.09304 -0.159496,0.212662 -0.0576,0.119622 -0.0576,0.248105 z m -1.408885,0.239245 q 0.01329,0.155066 0.07532,0.29241 0.06203,0.137344 0.163927,0.239245 0.1019,0.09747 0.234814,0.155066 0.132914,0.0576 0.28798,0.0576 0.234814,0 0.403171,-0.106331 0.172788,-0.110761 0.261397,-0.252536 l 0.225954,0.186079 q -0.18608,0.234814 -0.412033,0.336715 -0.221523,0.1019 -0.478489,0.1019 -0.230384,0 -0.429755,-0.07975 -0.19494,-0.08418 -0.336714,-0.230384 -0.141775,-0.146205 -0.225954,-0.345575 -0.07975,-0.199371 -0.07975,-0.434185 0,-0.234814 0.07975,-0.434185 0.07975,-0.19937 0.221523,-0.345576 0.141775,-0.146205 0.332284,-0.225953 0.19051,-0.08418 0.412033,-0.08418 0.234814,0 0.420893,0.08418 0.18608,0.08418 0.310132,0.225953 0.128484,0.137345 0.19494,0.327854 0.06646,0.186079 0.06646,0.398741 v 0.132914 z"
         style="font-style:normal;font-variant:normal;font-weight:normal;font-stretch:normal;font-size:medium;line-height:125%;font-family:Avenir;-inkscape-font-specification:Avenir;letter-spacing:0px;word-spacing:0px;fill:#000000;fill-opacity:1;stroke:none;stroke-width:0.1107614px;stroke-linecap:butt;stroke-linejoin:miter;stroke-opacity:1"
         id="path1143"
         inkscape:connector-curvature="0" />
      <path
         d="m 81.195939,86.76029 h -0.598112 v 1.222807 q 0,0.115191 0.02215,0.190509 0.02215,0.07089 0.06203,0.110762 0.03987,0.03987 0.09304,0.0576 0.0576,0.01329 0.124053,0.01329 0.07532,0 0.155066,-0.02215 0.07975,-0.02215 0.146205,-0.0576 l 0.01329,0.270258 q -0.163927,0.07532 -0.394311,0.07532 -0.08418,0 -0.177218,-0.02215 -0.08861,-0.02215 -0.163927,-0.08418 -0.07532,-0.06203 -0.124053,-0.168357 -0.04873,-0.106331 -0.04873,-0.279119 v -1.30699 h -0.438615 v -0.265827 h 0.438615 v -0.58482 h 0.29241 v 0.58482 h 0.598112 z"
         style="font-style:normal;font-variant:normal;font-weight:normal;font-stretch:normal;font-size:medium;line-height:125%;font-family:Avenir;-inkscape-font-specification:Avenir;letter-spacing:0px;word-spacing:0px;fill:#000000;fill-opacity:1;stroke:none;stroke-width:0.1107614px;stroke-linecap:butt;stroke-linejoin:miter;stroke-opacity:1"
         id="path1145"
         inkscape:connector-curvature="0" />
      <path
         d="m 82.823578,86.95523 q 0,-0.115191 -0.0089,-0.230383 -0.0044,-0.115192 -0.01329,-0.230384 h 0.314562 v 0.314562 h 0.0089 q 0.106331,-0.181648 0.29241,-0.274688 0.19051,-0.09304 0.376589,-0.09304 0.08418,0 0.177219,0.01772 0.09747,0.01772 0.186079,0.06646 0.08861,0.04431 0.163927,0.128483 0.07975,0.08418 0.132913,0.217093 0.08861,-0.199371 0.279119,-0.314563 0.19494,-0.115192 0.403172,-0.115192 0.398741,0 0.589251,0.212662 0.190509,0.208232 0.190509,0.598112 v 1.315846 h -0.29241 v -1.209515 q 0,-0.314562 -0.110761,-0.48292 -0.110762,-0.168357 -0.412033,-0.168357 -0.163927,0 -0.274688,0.06646 -0.110762,0.06203 -0.181649,0.168357 -0.06646,0.106331 -0.09747,0.243675 -0.03101,0.132914 -0.03101,0.279119 v 1.103184 h -0.29241 v -1.209515 q 0,-0.314562 -0.110762,-0.48292 -0.110761,-0.168357 -0.412032,-0.168357 -0.02658,0 -0.124053,0.01772 -0.09304,0.01772 -0.19494,0.09747 -0.101901,0.07975 -0.186079,0.239244 -0.07975,0.159497 -0.07975,0.443046 v 1.06331 h -0.29241 z"
         style="font-style:normal;font-variant:normal;font-weight:normal;font-stretch:normal;font-size:medium;line-height:125%;font-family:Avenir;-inkscape-font-specification:Avenir;letter-spacing:0px;word-spacing:0px;fill:#000000;fill-opacity:1;stroke:none;stroke-width:0.1107614px;stroke-linecap:butt;stroke-linejoin:miter;stroke-opacity:1"
         id="path1147"
         inkscape:connector-curvature="0" />
      <path
         d="m 87.77489,87.53562 q -0.110762,0 -0.279119,0.01329 -0.163927,0.0089 -0.318993,0.05316 -0.150635,0.03987 -0.261397,0.128483 -0.106331,0.08861 -0.106331,0.243676 0,0.1019 0.03987,0.177218 0.04431,0.07089 0.115192,0.119622 0.07089,0.04431 0.155066,0.06646 0.08861,0.01772 0.177218,0.01772 0.159497,0 0.274689,-0.05317 0.119622,-0.05316 0.19937,-0.141774 0.07975,-0.09304 0.115192,-0.212662 0.03987,-0.124053 0.03987,-0.261397 V 87.53562 Z m 0.150635,-0.239244 v -0.05317 q 0,-0.536085 -0.531655,-0.536085 -0.363297,0 -0.633555,0.243675 l -0.177218,-0.208231 q 0.29241,-0.301272 0.87723,-0.301272 0.150636,0 0.28798,0.0443 0.141775,0.0443 0.243675,0.137344 0.101901,0.08861 0.163927,0.225954 0.06203,0.137344 0.06203,0.327853 v 0.925966 q 0,0.119622 0.0089,0.252536 0.01329,0.128483 0.02658,0.212662 H 87.96983 q -0.01329,-0.07532 -0.02215,-0.163927 -0.0044,-0.08861 -0.0044,-0.172788 h -0.0089 q -0.128483,0.208232 -0.305701,0.301271 -0.172788,0.08861 -0.425324,0.08861 -0.137344,0 -0.265828,-0.03987 -0.128483,-0.03544 -0.230383,-0.110761 -0.09747,-0.07975 -0.159497,-0.19051 -0.0576,-0.115192 -0.0576,-0.265827 0,-0.252536 0.128483,-0.394311 0.132914,-0.146205 0.327854,-0.217092 0.199371,-0.07089 0.420894,-0.08861 0.225953,-0.01772 0.412032,-0.01772 z"
         style="font-style:normal;font-variant:normal;font-weight:normal;font-stretch:normal;font-size:medium;line-height:125%;font-family:Avenir;-inkscape-font-specification:Avenir;letter-spacing:0px;word-spacing:0px;fill:#000000;fill-opacity:1;stroke:none;stroke-width:0.1107614px;stroke-linecap:butt;stroke-linejoin:miter;stroke-opacity:1"
         id="path1149"
         inkscape:connector-curvature="0" />
      <path
         d="m 89.177269,86.494463 q 0.0089,0.08418 0.0089,0.168357 0.0044,0.07975 0.0044,0.163927 h 0.0089 q 0.04873,-0.08418 0.124053,-0.155066 0.07532,-0.07089 0.168357,-0.119622 0.09304,-0.05317 0.19494,-0.07975 0.106331,-0.03101 0.208232,-0.03101 0.398741,0 0.58925,0.212662 0.19051,0.208232 0.19051,0.598112 v 1.315846 h -0.29241 V 87.42043 q 0,-0.345575 -0.119622,-0.527224 -0.119623,-0.186079 -0.443046,-0.186079 -0.02215,0 -0.124053,0.01772 -0.1019,0.01772 -0.217092,0.09747 -0.110762,0.07975 -0.199371,0.239244 -0.08861,0.159497 -0.08861,0.443046 v 1.06331 H 88.89815 V 86.9508 q 0,-0.08418 -0.0089,-0.212662 -0.0044,-0.128483 -0.01329,-0.243675 z"
         style="font-style:normal;font-variant:normal;font-weight:normal;font-stretch:normal;font-size:medium;line-height:125%;font-family:Avenir;-inkscape-font-specification:Avenir;letter-spacing:0px;word-spacing:0px;fill:#000000;fill-opacity:1;stroke:none;stroke-width:0.1107614px;stroke-linecap:butt;stroke-linejoin:miter;stroke-opacity:1"
         id="path1151"
         inkscape:connector-curvature="0" />
      <path
         d="m 92.542825,87.53562 q -0.110762,0 -0.279119,0.01329 -0.163927,0.0089 -0.318993,0.05316 -0.150636,0.03987 -0.261397,0.128483 -0.106331,0.08861 -0.106331,0.243676 0,0.1019 0.03987,0.177218 0.0443,0.07089 0.115192,0.119622 0.07089,0.04431 0.155066,0.06646 0.08861,0.01772 0.177218,0.01772 0.159497,0 0.274689,-0.05317 0.119622,-0.05316 0.19937,-0.141774 0.07975,-0.09304 0.115192,-0.212662 0.03987,-0.124053 0.03987,-0.261397 V 87.53562 Z m 0.150635,-0.239244 v -0.05317 q 0,-0.536085 -0.531655,-0.536085 -0.363297,0 -0.633555,0.243675 l -0.177218,-0.208231 q 0.29241,-0.301272 0.87723,-0.301272 0.150636,0 0.28798,0.0443 0.141774,0.0443 0.243675,0.137344 0.1019,0.08861 0.163927,0.225954 0.06203,0.137344 0.06203,0.327853 v 0.925966 q 0,0.119622 0.0089,0.252536 0.01329,0.128483 0.02658,0.212662 h -0.283549 q -0.01329,-0.07532 -0.02215,-0.163927 -0.0044,-0.08861 -0.0044,-0.172788 h -0.0089 q -0.128483,0.208232 -0.305702,0.301271 -0.172787,0.08861 -0.425323,0.08861 -0.137345,0 -0.265828,-0.03987 -0.128483,-0.03544 -0.230384,-0.110761 -0.09747,-0.07975 -0.159496,-0.19051 -0.0576,-0.115192 -0.0576,-0.265827 0,-0.252536 0.128483,-0.394311 0.132914,-0.146205 0.327854,-0.217092 0.199371,-0.07089 0.420893,-0.08861 0.225954,-0.01772 0.412033,-0.01772 z"
         style="font-style:normal;font-variant:normal;font-weight:normal;font-stretch:normal;font-size:medium;line-height:125%;font-family:Avenir;-inkscape-font-specification:Avenir;letter-spacing:0px;word-spacing:0px;fill:#000000;fill-opacity:1;stroke:none;stroke-width:0.1107614px;stroke-linecap:butt;stroke-linejoin:miter;stroke-opacity:1"
         id="path1153"
         inkscape:connector-curvature="0" />
      <path
         d="m 93.878747,87.504607 q 0,0.163927 0.05759,0.310132 0.06203,0.141775 0.163927,0.252536 0.106331,0.106331 0.243676,0.172788 0.141774,0.06203 0.305701,0.06203 0.159497,0 0.301271,-0.05759 0.146205,-0.0576 0.256967,-0.159497 0.110761,-0.106331 0.168357,-0.252536 0.06203,-0.146205 0.0576,-0.327854 0,-0.163927 -0.05317,-0.305701 -0.05317,-0.146205 -0.155066,-0.252536 -0.1019,-0.110762 -0.248105,-0.172788 -0.146205,-0.06646 -0.327854,-0.06646 -0.163927,0 -0.305701,0.06646 -0.137345,0.06203 -0.243676,0.172788 -0.1019,0.106331 -0.163927,0.252536 -0.05759,0.141774 -0.05759,0.305701 z m -0.05317,1.479773 q 0.128483,0.172788 0.332284,0.274688 0.208232,0.106331 0.460768,0.106331 0.221523,0 0.376589,-0.06646 0.155066,-0.06203 0.248105,-0.172788 0.09747,-0.110761 0.137344,-0.261397 0.0443,-0.146205 0.0443,-0.314562 v -0.372158 h -0.0089 q -0.141774,0.212662 -0.345576,0.301271 -0.203801,0.08861 -0.429754,0.08861 -0.225953,0 -0.425324,-0.07975 -0.19494,-0.07975 -0.341145,-0.217093 -0.146205,-0.141774 -0.230384,-0.336714 -0.08418,-0.194941 -0.08418,-0.420894 0,-0.225953 0.07975,-0.420893 0.07975,-0.19494 0.217092,-0.341146 0.141775,-0.146205 0.332285,-0.225953 0.19494,-0.08418 0.425323,-0.08418 0.09304,0 0.194941,0.01772 0.10633,0.01772 0.208231,0.06203 0.106331,0.0443 0.208231,0.124052 0.101901,0.07532 0.19051,0.194941 h 0.0089 v -0.345576 h 0.29241 v 2.055732 q 0,0.168357 -0.0443,0.358867 -0.03987,0.19051 -0.163927,0.350006 -0.119623,0.159497 -0.336715,0.265828 -0.217092,0.106331 -0.567099,0.106331 -0.310132,0 -0.553807,-0.101901 -0.243675,-0.1019 -0.443045,-0.314562 z"
         style="font-style:normal;font-variant:normal;font-weight:normal;font-stretch:normal;font-size:medium;line-height:125%;font-family:Avenir;-inkscape-font-specification:Avenir;letter-spacing:0px;word-spacing:0px;fill:#000000;fill-opacity:1;stroke:none;stroke-width:0.1107614px;stroke-linecap:butt;stroke-linejoin:miter;stroke-opacity:1"
         id="path1155"
         inkscape:connector-curvature="0" />
      <path
         d="m 97.987233,87.371693 q 0,-0.29684 -0.177219,-0.478489 -0.177218,-0.186079 -0.496211,-0.186079 -0.141774,0 -0.274688,0.0576 -0.132914,0.05317 -0.234814,0.146205 -0.09747,0.09304 -0.159497,0.212662 -0.0576,0.119622 -0.0576,0.248105 z m -1.408886,0.239245 q 0.01329,0.155066 0.07532,0.29241 0.06203,0.137344 0.163927,0.239245 0.101901,0.09747 0.234814,0.155066 0.132914,0.0576 0.28798,0.0576 0.234814,0 0.403172,-0.106331 0.172787,-0.110761 0.261397,-0.252536 l 0.225953,0.186079 q -0.186079,0.234814 -0.412033,0.336715 -0.221522,0.1019 -0.478489,0.1019 -0.230384,0 -0.429754,-0.07975 -0.19494,-0.08418 -0.336715,-0.230384 -0.141775,-0.146205 -0.225953,-0.345575 -0.07975,-0.199371 -0.07975,-0.434185 0,-0.234814 0.07975,-0.434185 0.07975,-0.19937 0.221522,-0.345576 0.141775,-0.146205 0.332285,-0.225953 0.190509,-0.08418 0.412032,-0.08418 0.234814,0 0.420894,0.08418 0.186079,0.08418 0.310132,0.225953 0.128483,0.137345 0.19494,0.327854 0.06646,0.186079 0.06646,0.398741 v 0.132914 z"
         style="font-style:normal;font-variant:normal;font-weight:normal;font-stretch:normal;font-size:medium;line-height:125%;font-family:Avenir;-inkscape-font-specification:Avenir;letter-spacing:0px;word-spacing:0px;fill:#000000;fill-opacity:1;stroke:none;stroke-width:0.1107614px;stroke-linecap:butt;stroke-linejoin:miter;stroke-opacity:1"
         id="path1157"
         inkscape:connector-curvature="0" />
      <path
         d="m 98.840718,86.95523 q 0,-0.115191 -0.0089,-0.230383 -0.0044,-0.115192 -0.01329,-0.230384 h 0.314563 v 0.314562 h 0.0089 q 0.106331,-0.181648 0.29241,-0.274688 0.19051,-0.09304 0.376589,-0.09304 0.08418,0 0.177218,0.01772 0.09747,0.01772 0.186082,0.06646 0.0886,0.04431 0.16392,0.128483 0.0797,0.08418 0.13292,0.217093 0.0886,-0.199371 0.27911,-0.314563 0.19494,-0.115192 0.40318,-0.115192 0.39874,0 0.58925,0.212662 0.19051,0.208232 0.19051,0.598112 v 1.315846 h -0.29241 v -1.209515 q 0,-0.314562 -0.11076,-0.48292 -0.11077,-0.168357 -0.41204,-0.168357 -0.16392,0 -0.27469,0.06646 -0.11076,0.06203 -0.18164,0.168357 -0.0665,0.106331 -0.0975,0.243675 -0.031,0.132914 -0.031,0.279119 v 1.103184 h -0.29241 v -1.209515 q 0,-0.314562 -0.11076,-0.48292 -0.11076,-0.168357 -0.41203,-0.168357 -0.02658,0 -0.124053,0.01772 -0.09304,0.01772 -0.19494,0.09747 -0.1019,0.07975 -0.186079,0.239244 -0.07975,0.159497 -0.07975,0.443046 v 1.06331 h -0.29241 z"
         style="font-style:normal;font-variant:normal;font-weight:normal;font-stretch:normal;font-size:medium;line-height:125%;font-family:Avenir;-inkscape-font-specification:Avenir;letter-spacing:0px;word-spacing:0px;fill:#000000;fill-opacity:1;stroke:none;stroke-width:0.1107614px;stroke-linecap:butt;stroke-linejoin:miter;stroke-opacity:1"
         id="path1159"
         inkscape:connector-curvature="0" />
      <path
         d="m 104.22622,87.371693 q 0,-0.29684 -0.17722,-0.478489 -0.17722,-0.186079 -0.49621,-0.186079 -0.14178,0 -0.27469,0.0576 -0.13292,0.05317 -0.23482,0.146205 -0.0975,0.09304 -0.15949,0.212662 -0.0576,0.119622 -0.0576,0.248105 z m -1.40889,0.239245 q 0.0133,0.155066 0.0753,0.29241 0.062,0.137344 0.16393,0.239245 0.1019,0.09747 0.23481,0.155066 0.13291,0.0576 0.28798,0.0576 0.23481,0 0.40317,-0.106331 0.17279,-0.110761 0.2614,-0.252536 l 0.22595,0.186079 q -0.18608,0.234814 -0.41203,0.336715 -0.22152,0.1019 -0.47849,0.1019 -0.23038,0 -0.42976,-0.07975 -0.19494,-0.08418 -0.33671,-0.230384 -0.14177,-0.146205 -0.22595,-0.345575 -0.0798,-0.199371 -0.0798,-0.434185 0,-0.234814 0.0798,-0.434185 0.0797,-0.19937 0.22152,-0.345576 0.14177,-0.146205 0.33228,-0.225953 0.19051,-0.08418 0.41204,-0.08418 0.23481,0 0.42089,0.08418 0.18608,0.08418 0.31013,0.225953 0.12849,0.137345 0.19494,0.327854 0.0665,0.186079 0.0665,0.398741 v 0.132914 z"
         style="font-style:normal;font-variant:normal;font-weight:normal;font-stretch:normal;font-size:medium;line-height:125%;font-family:Avenir;-inkscape-font-specification:Avenir;letter-spacing:0px;word-spacing:0px;fill:#000000;fill-opacity:1;stroke:none;stroke-width:0.1107614px;stroke-linecap:butt;stroke-linejoin:miter;stroke-opacity:1"
         id="path1161"
         inkscape:connector-curvature="0" />
      <path
         d="m 105.35882,86.494463 q 0.009,0.08418 0.009,0.168357 0.004,0.07975 0.004,0.163927 h 0.009 q 0.0487,-0.08418 0.12405,-0.155066 0.0753,-0.07089 0.16836,-0.119622 0.093,-0.05317 0.19494,-0.07975 0.10633,-0.03101 0.20823,-0.03101 0.39874,0 0.58925,0.212662 0.19051,0.208232 0.19051,0.598112 v 1.315846 h -0.29241 V 87.42043 q 0,-0.345575 -0.11962,-0.527224 -0.11962,-0.186079 -0.44304,-0.186079 -0.0222,0 -0.12406,0.01772 -0.1019,0.01772 -0.21709,0.09747 -0.11076,0.07975 -0.19937,0.239244 -0.0886,0.159497 -0.0886,0.443046 v 1.06331 H 105.0797 V 86.9508 q 0,-0.08418 -0.009,-0.212662 -0.004,-0.128483 -0.0133,-0.243675 z"
         style="font-style:normal;font-variant:normal;font-weight:normal;font-stretch:normal;font-size:medium;line-height:125%;font-family:Avenir;-inkscape-font-specification:Avenir;letter-spacing:0px;word-spacing:0px;fill:#000000;fill-opacity:1;stroke:none;stroke-width:0.1107614px;stroke-linecap:butt;stroke-linejoin:miter;stroke-opacity:1"
         id="path1163"
         inkscape:connector-curvature="0" />
      <path
         d="m 108.61805,86.76029 h -0.59812 v 1.222807 q 0,0.115191 0.0222,0.190509 0.0221,0.07089 0.062,0.110762 0.0399,0.03987 0.093,0.0576 0.0576,0.01329 0.12406,0.01329 0.0753,0 0.15506,-0.02215 0.0798,-0.02215 0.14621,-0.0576 l 0.0133,0.270258 q -0.16393,0.07532 -0.39431,0.07532 -0.0842,0 -0.17722,-0.02215 -0.0886,-0.02215 -0.16393,-0.08418 -0.0753,-0.06203 -0.12405,-0.168357 -0.0487,-0.106331 -0.0487,-0.279119 v -1.30699 h -0.43861 v -0.265827 h 0.43861 v -0.58482 h 0.29241 v 0.58482 h 0.59812 z"
         style="font-style:normal;font-variant:normal;font-weight:normal;font-stretch:normal;font-size:medium;line-height:125%;font-family:Avenir;-inkscape-font-specification:Avenir;letter-spacing:0px;word-spacing:0px;fill:#000000;fill-opacity:1;stroke:none;stroke-width:0.1107614px;stroke-linecap:butt;stroke-linejoin:miter;stroke-opacity:1"
         id="path1165"
         inkscape:connector-curvature="0" />
    </g>
    <g
       id="g1264"
       transform="matrix(0.9654594,0,0,0.9654594,3.292378,3.1032598)">
      <path
         d="m 110.3343,86.494463 0.47848,1.683574 h 0.009 l 0.5538,-1.683574 h 0.30127 l 0.55381,1.683574 h 0.009 l 0.47849,-1.683574 h 0.34558 l -0.65571,2.073454 h -0.32785 l -0.54938,-1.701296 h -0.009 l -0.54938,1.701296 h -0.32785 l -0.65571,-2.073454 z"
         style="font-style:normal;font-variant:normal;font-weight:normal;font-stretch:normal;font-size:medium;line-height:125%;font-family:Avenir;-inkscape-font-specification:Avenir;letter-spacing:0px;word-spacing:0px;fill:#000000;fill-opacity:1;stroke:none;stroke-width:0.1107614px;stroke-linecap:butt;stroke-linejoin:miter;stroke-opacity:1"
         id="path1167"
         inkscape:connector-curvature="0" />
      <path
         d="m 113.8727,85.696981 q 0,0.09304 -0.0664,0.155066 -0.0665,0.0576 -0.14621,0.0576 -0.0797,0 -0.1462,-0.0576 -0.0665,-0.06203 -0.0665,-0.155066 0,-0.09304 0.0665,-0.150636 0.0665,-0.06203 0.1462,-0.06203 0.0798,0 0.14621,0.06203 0.0664,0.0576 0.0664,0.150636 z m -0.0664,2.870936 h -0.29241 v -2.073454 h 0.29241 z"
         style="font-style:normal;font-variant:normal;font-weight:normal;font-stretch:normal;font-size:medium;line-height:125%;font-family:Avenir;-inkscape-font-specification:Avenir;letter-spacing:0px;word-spacing:0px;fill:#000000;fill-opacity:1;stroke:none;stroke-width:0.1107614px;stroke-linecap:butt;stroke-linejoin:miter;stroke-opacity:1"
         id="path1169"
         inkscape:connector-curvature="0" />
      <path
         d="m 115.5839,86.76029 h -0.59811 v 1.222807 q 0,0.115191 0.0222,0.190509 0.0221,0.07089 0.062,0.110762 0.0399,0.03987 0.093,0.0576 0.0576,0.01329 0.12405,0.01329 0.0753,0 0.15507,-0.02215 0.0797,-0.02215 0.1462,-0.0576 l 0.0133,0.270258 q -0.16392,0.07532 -0.39431,0.07532 -0.0842,0 -0.17722,-0.02215 -0.0886,-0.02215 -0.16392,-0.08418 -0.0753,-0.06203 -0.12406,-0.168357 -0.0487,-0.106331 -0.0487,-0.279119 v -1.30699 h -0.43862 v -0.265827 h 0.43862 v -0.58482 h 0.29241 v 0.58482 h 0.59811 z"
         style="font-style:normal;font-variant:normal;font-weight:normal;font-stretch:normal;font-size:medium;line-height:125%;font-family:Avenir;-inkscape-font-specification:Avenir;letter-spacing:0px;word-spacing:0px;fill:#000000;fill-opacity:1;stroke:none;stroke-width:0.1107614px;stroke-linecap:butt;stroke-linejoin:miter;stroke-opacity:1"
         id="path1171"
         inkscape:connector-curvature="0" />
      <path
         d="m 115.98278,85.218491 h 0.29241 v 1.608256 h 0.009 q 0.0487,-0.08418 0.12405,-0.155066 0.0753,-0.07089 0.16836,-0.119622 0.093,-0.05317 0.19494,-0.07975 0.10633,-0.03101 0.20823,-0.03101 0.39874,0 0.58925,0.212662 0.19051,0.208232 0.19051,0.598112 v 1.315846 h -0.29241 V 87.42043 q 0,-0.345575 -0.11962,-0.527224 -0.11962,-0.186079 -0.44304,-0.186079 -0.0222,0 -0.12406,0.01772 -0.1019,0.01772 -0.21709,0.09747 -0.11076,0.07975 -0.19937,0.239244 -0.0886,0.159497 -0.0886,0.443046 v 1.06331 h -0.29241 z"
         style="font-style:normal;font-variant:normal;font-weight:normal;font-stretch:normal;font-size:medium;line-height:125%;font-family:Avenir;-inkscape-font-specification:Avenir;letter-spacing:0px;word-spacing:0px;fill:#000000;fill-opacity:1;stroke:none;stroke-width:0.1107614px;stroke-linecap:butt;stroke-linejoin:miter;stroke-opacity:1"
         id="path1173"
         inkscape:connector-curvature="0" />
      <path
         d="m 121.56952,87.53119 q 0,-0.172788 -0.0576,-0.323423 -0.0532,-0.150636 -0.15506,-0.261397 -0.10191,-0.110762 -0.24811,-0.172788 -0.14178,-0.06646 -0.32342,-0.06646 -0.18165,0 -0.33229,0.06646 -0.15063,0.06203 -0.2614,0.172788 -0.11076,0.110761 -0.17278,0.261397 -0.062,0.150635 -0.062,0.323423 0,0.172788 0.062,0.323423 0.062,0.150636 0.17278,0.261397 0.11077,0.110762 0.2614,0.177219 0.15064,0.06203 0.33229,0.06203 0.18164,0 0.32342,-0.06203 0.1462,-0.06646 0.24811,-0.177219 0.1019,-0.110761 0.15506,-0.261397 0.0576,-0.150635 0.0576,-0.323423 z m -1.89181,-1.036727 h 0.29241 v 0.345576 h 0.009 q 0.0709,-0.106331 0.16836,-0.181649 0.0975,-0.07532 0.2038,-0.124053 0.10633,-0.04873 0.21709,-0.07089 0.1152,-0.02215 0.2171,-0.02215 0.24367,0 0.44304,0.08418 0.2038,0.07975 0.35001,0.225953 0.1462,0.146206 0.22595,0.345576 0.0842,0.199371 0.0842,0.434185 0,0.234814 -0.0842,0.434185 -0.0797,0.19937 -0.22595,0.345575 -0.14621,0.146205 -0.35001,0.230384 -0.19937,0.07975 -0.44304,0.07975 -0.1019,0 -0.2171,-0.02215 -0.11076,-0.02215 -0.21709,-0.07089 -0.10633,-0.04873 -0.2038,-0.124053 -0.0975,-0.07532 -0.16836,-0.181649 h -0.009 v 1.621548 h -0.29241 z"
         style="font-style:normal;font-variant:normal;font-weight:normal;font-stretch:normal;font-size:medium;line-height:125%;font-family:Avenir;-inkscape-font-specification:Avenir;letter-spacing:0px;word-spacing:0px;fill:#000000;fill-opacity:1;stroke:none;stroke-width:0.1107614px;stroke-linecap:butt;stroke-linejoin:miter;stroke-opacity:1"
         id="path1175"
         inkscape:connector-curvature="0" />
      <path
         d="m 122.38617,85.218491 h 0.29241 v 1.608256 h 0.009 q 0.0487,-0.08418 0.12406,-0.155066 0.0753,-0.07089 0.16835,-0.119622 0.093,-0.05317 0.19494,-0.07975 0.10634,-0.03101 0.20824,-0.03101 0.39874,0 0.58925,0.212662 0.19051,0.208232 0.19051,0.598112 v 1.315846 h -0.29241 V 87.42043 q 0,-0.345575 -0.11963,-0.527224 -0.11962,-0.186079 -0.44304,-0.186079 -0.0221,0 -0.12405,0.01772 -0.1019,0.01772 -0.2171,0.09747 -0.11076,0.07975 -0.19937,0.239244 -0.0886,0.159497 -0.0886,0.443046 v 1.06331 h -0.29241 z"
         style="font-style:normal;font-variant:normal;font-weight:normal;font-stretch:normal;font-size:medium;line-height:125%;font-family:Avenir;-inkscape-font-specification:Avenir;letter-spacing:0px;word-spacing:0px;fill:#000000;fill-opacity:1;stroke:none;stroke-width:0.1107614px;stroke-linecap:butt;stroke-linejoin:miter;stroke-opacity:1"
         id="path1177"
         inkscape:connector-curvature="0" />
      <path
         d="m 125.27767,85.696981 q 0,0.09304 -0.0665,0.155066 -0.0665,0.0576 -0.14621,0.0576 -0.0798,0 -0.1462,-0.0576 -0.0665,-0.06203 -0.0665,-0.155066 0,-0.09304 0.0665,-0.150636 0.0665,-0.06203 0.1462,-0.06203 0.0798,0 0.14621,0.06203 0.0665,0.0576 0.0665,0.150636 z m -0.0665,2.870936 h -0.29241 v -2.073454 h 0.29241 z"
         style="font-style:normal;font-variant:normal;font-weight:normal;font-stretch:normal;font-size:medium;line-height:125%;font-family:Avenir;-inkscape-font-specification:Avenir;letter-spacing:0px;word-spacing:0px;fill:#000000;fill-opacity:1;stroke:none;stroke-width:0.1107614px;stroke-linecap:butt;stroke-linejoin:miter;stroke-opacity:1"
         id="path1179"
         inkscape:connector-curvature="0" />
      <path
         d="m 126.27556,88.567917 h -0.29241 v -3.349426 h 0.29241 z"
         style="font-style:normal;font-variant:normal;font-weight:normal;font-stretch:normal;font-size:medium;line-height:125%;font-family:Avenir;-inkscape-font-specification:Avenir;letter-spacing:0px;word-spacing:0px;fill:#000000;fill-opacity:1;stroke:none;stroke-width:0.1107614px;stroke-linecap:butt;stroke-linejoin:miter;stroke-opacity:1"
         id="path1181"
         inkscape:connector-curvature="0" />
      <path
         d="m 128.75765,87.53119 q 0,-0.172788 -0.0576,-0.323423 -0.0532,-0.150636 -0.15507,-0.261397 -0.1019,-0.110762 -0.2481,-0.172788 -0.14178,-0.06646 -0.32343,-0.06646 -0.18165,0 -0.32785,0.06646 -0.14177,0.06203 -0.24368,0.172788 -0.0975,0.110761 -0.15506,0.261397 -0.0532,0.150635 -0.0532,0.323423 0,0.172788 0.0532,0.323423 0.0576,0.150636 0.15506,0.261397 0.10191,0.110762 0.24368,0.177219 0.1462,0.06203 0.32785,0.06203 0.18165,0 0.32343,-0.06203 0.1462,-0.06646 0.2481,-0.177219 0.1019,-0.110761 0.15507,-0.261397 0.0576,-0.150635 0.0576,-0.323423 z m 0.319,0 q 0,0.234814 -0.0842,0.434185 -0.0797,0.19937 -0.22595,0.345575 -0.14621,0.146205 -0.35001,0.230384 -0.19937,0.07975 -0.44305,0.07975 -0.23924,0 -0.44304,-0.07975 -0.19937,-0.08418 -0.34558,-0.230384 -0.1462,-0.146205 -0.23038,-0.345575 -0.0798,-0.199371 -0.0798,-0.434185 0,-0.234814 0.0798,-0.434185 0.0842,-0.19937 0.23038,-0.345576 0.14621,-0.146205 0.34558,-0.225953 0.2038,-0.08418 0.44304,-0.08418 0.24368,0 0.44305,0.08418 0.2038,0.07975 0.35001,0.225953 0.1462,0.146206 0.22595,0.345576 0.0842,0.199371 0.0842,0.434185 z"
         style="font-style:normal;font-variant:normal;font-weight:normal;font-stretch:normal;font-size:medium;line-height:125%;font-family:Avenir;-inkscape-font-specification:Avenir;letter-spacing:0px;word-spacing:0px;fill:#000000;fill-opacity:1;stroke:none;stroke-width:0.1107614px;stroke-linecap:butt;stroke-linejoin:miter;stroke-opacity:1"
         id="path1183"
         inkscape:connector-curvature="0" />
      <path
         d="m 130.71038,86.986244 q -0.0665,-0.128484 -0.17722,-0.203801 -0.11076,-0.07532 -0.27026,-0.07532 -0.0753,0 -0.15506,0.01772 -0.0753,0.01772 -0.13735,0.0576 -0.062,0.03544 -0.1019,0.09304 -0.0354,0.0576 -0.0354,0.141775 0,0.146205 0.1019,0.212662 0.1019,0.06646 0.3057,0.115192 l 0.29684,0.07089 q 0.21709,0.04873 0.35887,0.199371 0.1462,0.146205 0.1462,0.367728 0,0.168357 -0.0709,0.29241 -0.0665,0.119622 -0.18165,0.19937 -0.11076,0.07532 -0.25697,0.110762 -0.1462,0.03544 -0.29684,0.03544 -0.23924,0 -0.44748,-0.08861 -0.2038,-0.09304 -0.35,-0.314562 l 0.25253,-0.172788 q 0.0886,0.141775 0.22153,0.225953 0.13734,0.08418 0.32342,0.08418 0.0886,0 0.17722,-0.01772 0.0886,-0.02215 0.15506,-0.06203 0.0709,-0.04431 0.11077,-0.110762 0.0443,-0.06646 0.0443,-0.155066 0,-0.155066 -0.11519,-0.221523 -0.11519,-0.07089 -0.27912,-0.110761 l -0.28355,-0.06646 q -0.0532,-0.01329 -0.1462,-0.0443 -0.0886,-0.03101 -0.17722,-0.09304 -0.0842,-0.06203 -0.14621,-0.159496 -0.062,-0.101901 -0.062,-0.248106 0,-0.159497 0.062,-0.279119 0.0665,-0.119622 0.17279,-0.19494 0.11076,-0.07532 0.24811,-0.110761 0.13734,-0.03987 0.28354,-0.03987 0.2171,0 0.40318,0.08418 0.18608,0.08418 0.28798,0.28798 z"
         style="font-style:normal;font-variant:normal;font-weight:normal;font-stretch:normal;font-size:medium;line-height:125%;font-family:Avenir;-inkscape-font-specification:Avenir;letter-spacing:0px;word-spacing:0px;fill:#000000;fill-opacity:1;stroke:none;stroke-width:0.1107614px;stroke-linecap:butt;stroke-linejoin:miter;stroke-opacity:1"
         id="path1185"
         inkscape:connector-curvature="0" />
      <path
         d="m 133.27465,87.53119 q 0,-0.172788 -0.0576,-0.323423 -0.0532,-0.150636 -0.15507,-0.261397 -0.1019,-0.110762 -0.2481,-0.172788 -0.14178,-0.06646 -0.32343,-0.06646 -0.18164,0 -0.32785,0.06646 -0.14177,0.06203 -0.24367,0.172788 -0.0975,0.110761 -0.15507,0.261397 -0.0532,0.150635 -0.0532,0.323423 0,0.172788 0.0532,0.323423 0.0576,0.150636 0.15507,0.261397 0.1019,0.110762 0.24367,0.177219 0.14621,0.06203 0.32785,0.06203 0.18165,0 0.32343,-0.06203 0.1462,-0.06646 0.2481,-0.177219 0.1019,-0.110761 0.15507,-0.261397 0.0576,-0.150635 0.0576,-0.323423 z m 0.31899,0 q 0,0.234814 -0.0842,0.434185 -0.0797,0.19937 -0.22595,0.345575 -0.14621,0.146205 -0.35001,0.230384 -0.19937,0.07975 -0.44305,0.07975 -0.23924,0 -0.44304,-0.07975 -0.19937,-0.08418 -0.34558,-0.230384 -0.1462,-0.146205 -0.23038,-0.345575 -0.0798,-0.199371 -0.0798,-0.434185 0,-0.234814 0.0798,-0.434185 0.0842,-0.19937 0.23038,-0.345576 0.14621,-0.146205 0.34558,-0.225953 0.2038,-0.08418 0.44304,-0.08418 0.24368,0 0.44305,0.08418 0.2038,0.07975 0.35001,0.225953 0.1462,0.146206 0.22595,0.345576 0.0842,0.199371 0.0842,0.434185 z"
         style="font-style:normal;font-variant:normal;font-weight:normal;font-stretch:normal;font-size:medium;line-height:125%;font-family:Avenir;-inkscape-font-specification:Avenir;letter-spacing:0px;word-spacing:0px;fill:#000000;fill-opacity:1;stroke:none;stroke-width:0.1107614px;stroke-linecap:butt;stroke-linejoin:miter;stroke-opacity:1"
         id="path1187"
         inkscape:connector-curvature="0" />
      <path
         d="m 136.02042,87.53119 q 0,-0.172788 -0.0576,-0.323423 -0.0532,-0.150636 -0.15507,-0.261397 -0.1019,-0.110762 -0.24811,-0.172788 -0.14177,-0.06646 -0.32342,-0.06646 -0.18165,0 -0.33228,0.06646 -0.15064,0.06203 -0.2614,0.172788 -0.11076,0.110761 -0.17279,0.261397 -0.062,0.150635 -0.062,0.323423 0,0.172788 0.062,0.323423 0.062,0.150636 0.17279,0.261397 0.11076,0.110762 0.2614,0.177219 0.15063,0.06203 0.33228,0.06203 0.18165,0 0.32342,-0.06203 0.14621,-0.06646 0.24811,-0.177219 0.1019,-0.110761 0.15507,-0.261397 0.0576,-0.150635 0.0576,-0.323423 z m -1.8918,-1.036727 h 0.29241 v 0.345576 h 0.009 q 0.0709,-0.106331 0.16836,-0.181649 0.0975,-0.07532 0.2038,-0.124053 0.10633,-0.04873 0.21709,-0.07089 0.11519,-0.02215 0.21709,-0.02215 0.24368,0 0.44305,0.08418 0.2038,0.07975 0.35,0.225953 0.14621,0.146206 0.22596,0.345576 0.0842,0.199371 0.0842,0.434185 0,0.234814 -0.0842,0.434185 -0.0797,0.19937 -0.22596,0.345575 -0.1462,0.146205 -0.35,0.230384 -0.19937,0.07975 -0.44305,0.07975 -0.1019,0 -0.21709,-0.02215 -0.11076,-0.02215 -0.21709,-0.07089 -0.10633,-0.04873 -0.2038,-0.124053 -0.0975,-0.07532 -0.16836,-0.181649 h -0.009 v 1.621548 h -0.29241 z"
         style="font-style:normal;font-variant:normal;font-weight:normal;font-stretch:normal;font-size:medium;line-height:125%;font-family:Avenir;-inkscape-font-specification:Avenir;letter-spacing:0px;word-spacing:0px;fill:#000000;fill-opacity:1;stroke:none;stroke-width:0.1107614px;stroke-linecap:butt;stroke-linejoin:miter;stroke-opacity:1"
         id="path1189"
         inkscape:connector-curvature="0" />
      <path
         d="m 136.83708,85.218491 h 0.29241 v 1.608256 h 0.009 q 0.0487,-0.08418 0.12406,-0.155066 0.0753,-0.07089 0.16835,-0.119622 0.093,-0.05317 0.19494,-0.07975 0.10633,-0.03101 0.20824,-0.03101 0.39874,0 0.58925,0.212662 0.19051,0.208232 0.19051,0.598112 v 1.315846 h -0.29241 V 87.42043 q 0,-0.345575 -0.11963,-0.527224 -0.11962,-0.186079 -0.44304,-0.186079 -0.0222,0 -0.12406,0.01772 -0.1019,0.01772 -0.21709,0.09747 -0.11076,0.07975 -0.19937,0.239244 -0.0886,0.159497 -0.0886,0.443046 v 1.06331 h -0.29241 z"
         style="font-style:normal;font-variant:normal;font-weight:normal;font-stretch:normal;font-size:medium;line-height:125%;font-family:Avenir;-inkscape-font-specification:Avenir;letter-spacing:0px;word-spacing:0px;fill:#000000;fill-opacity:1;stroke:none;stroke-width:0.1107614px;stroke-linecap:butt;stroke-linejoin:miter;stroke-opacity:1"
         id="path1191"
         inkscape:connector-curvature="0" />
      <path
         d="m 140.07415,88.20905 0.63356,-1.714587 h 0.35443 l -1.03672,2.61397 q -0.093,0.239244 -0.23925,0.381019 -0.14177,0.141775 -0.41203,0.141775 -0.0665,0 -0.13734,-0.0044 -0.0665,-0.0044 -0.13292,-0.02658 l 0.031,-0.283549 q 0.093,0.04873 0.22152,0.04873 0.15506,0 0.24367,-0.09747 0.0886,-0.09747 0.15507,-0.274688 l 0.15064,-0.398741 -0.85065,-2.100037 h 0.36773 z"
         style="font-style:normal;font-variant:normal;font-weight:normal;font-stretch:normal;font-size:medium;line-height:125%;font-family:Avenir;-inkscape-font-specification:Avenir;letter-spacing:0px;word-spacing:0px;fill:#000000;fill-opacity:1;stroke:none;stroke-width:0.1107614px;stroke-linecap:butt;stroke-linejoin:miter;stroke-opacity:1"
         id="path1193"
         inkscape:connector-curvature="0" />
    </g>
    <g
       id="g1127"
       transform="translate(-10.864661,29.053689)">
      <rect
         ry="0.8661797"
         rx="0.8661797"
         transform="matrix(-0.8660254,-0.5,-0.5,0.8660254,0,0)"
         style="opacity:1;fill:#357edd;fill-opacity:1;stroke:none;stroke-width:0.33474332;stroke-linecap:round;stroke-linejoin:round;stroke-miterlimit:4;stroke-dasharray:none;stroke-opacity:1"
         id="rect823"
         width="8.6617966"
         height="8.6617966"
         x="-153.42622"
         y="-35.584167" />
      <rect
         ry="0.8661797"
         rx="0.8661797"
         transform="scale(-1,1)"
         y="44.735855"
         x="-129.00861"
         height="8.6617975"
         width="8.6617975"
         id="rect825"
         style="opacity:1;fill:#d5008f;fill-opacity:1;stroke:none;stroke-width:0.33474332;stroke-linecap:round;stroke-linejoin:round;stroke-miterlimit:4;stroke-dasharray:none;stroke-opacity:1" />
      <rect
         style="opacity:1;fill:#777777;fill-opacity:1;stroke:none;stroke-width:0.33474332;stroke-linecap:round;stroke-linejoin:round;stroke-miterlimit:4;stroke-dasharray:none;stroke-opacity:1"
         id="rect1122"
         width="8.6617975"
         height="8.6617975"
         x="-146.79973"
         y="7.2846546"
         transform="matrix(-0.96592583,-0.25881905,-0.25881905,0.96592583,0,0)"
         rx="0.8661797"
         ry="0.8661797" />
    </g>
  </g>
</svg>
