<?xml version="1.0" encoding="UTF-8" standalone="no"?>
<!-- Created with Inkscape (http://www.inkscape.org/) -->

<svg
   xmlns:dc="http://purl.org/dc/elements/1.1/"
   xmlns:cc="http://creativecommons.org/ns#"
   xmlns:rdf="http://www.w3.org/1999/02/22-rdf-syntax-ns#"
   xmlns:svg="http://www.w3.org/2000/svg"
   xmlns="http://www.w3.org/2000/svg"
   xmlns:sodipodi="http://sodipodi.sourceforge.net/DTD/sodipodi-0.dtd"
   xmlns:inkscape="http://www.inkscape.org/namespaces/inkscape"
   width="130mm"
   height="80mm"
   viewBox="0 0 130 80"
   version="1.1"
   id="svg8"
   inkscape:version="0.92.2 5c3e80d, 2017-08-06"
   sodipodi:docname="OSD_logo_1.svg"
   inkscape:export-filename="/Users/lucacorsato/Documents/osd/website/openstrategydata/assets/img/OSD_logo.png"
   inkscape:export-xdpi="300"
   inkscape:export-ydpi="300">
  <defs
     id="defs2" />
  <sodipodi:namedview
     id="base"
     pagecolor="#ffffff"
     bordercolor="#666666"
     borderopacity="1.0"
     inkscape:pageopacity="0.0"
     inkscape:pageshadow="2"
     inkscape:zoom="1.3636218"
     inkscape:cx="245.6693"
     inkscape:cy="151.1811"
     inkscape:document-units="mm"
     inkscape:current-layer="layer1"
     showgrid="false"
     inkscape:snap-bbox="true"
     inkscape:bbox-paths="true"
     inkscape:bbox-nodes="true"
     inkscape:snap-bbox-edge-midpoints="true"
     inkscape:snap-bbox-midpoints="true"
     inkscape:object-paths="true"
     inkscape:snap-intersection-paths="true"
     inkscape:window-width="1920"
     inkscape:window-height="1097"
     inkscape:window-x="0"
     inkscape:window-y="1"
     inkscape:window-maximized="1"
     fit-margin-top="0"
     fit-margin-left="0"
     fit-margin-right="0"
     fit-margin-bottom="0" />
  <metadata
     id="metadata5">
    <rdf:RDF>
      <cc:Work
         rdf:about="">
        <dc:format>image/svg+xml</dc:format>
        <dc:type
           rdf:resource="http://purl.org/dc/dcmitype/StillImage" />
        <dc:title></dc:title>
      </cc:Work>
    </rdf:RDF>
  </metadata>
  <g
     inkscape:label="Livello 1"
     inkscape:groupmode="layer"
     id="layer1"
     transform="translate(-29.482143,-26.964279)">
    <rect
       style="opacity:1;fill:#777777;fill-opacity:1;stroke:none;stroke-width:0.38645941;stroke-linecap:round;stroke-linejoin:round;stroke-miterlimit:4;stroke-dasharray:none;stroke-opacity:1"
       id="rect815"
       width="10"
       height="10"
       x="-159.48215"
       y="46.964279"
       transform="scale(-1,1)"
       ry="1"
       rx="1" />
    <rect
       y="46.964279"
       x="-149.48215"
       height="10"
       width="10"
       id="rect817"
       style="opacity:1;fill:#d5008f;fill-opacity:1;stroke:none;stroke-width:0.38645941;stroke-linecap:round;stroke-linejoin:round;stroke-miterlimit:4;stroke-dasharray:none;stroke-opacity:1"
       transform="scale(-1,1)"
       rx="1"
       ry="1" />
    <rect
       y="26.964279"
       x="-159.48215"
       height="20"
       width="20"
       id="rect819"
       style="opacity:1;fill:#357edd;fill-opacity:1;stroke:none;stroke-width:0.77291882;stroke-linecap:round;stroke-linejoin:round;stroke-miterlimit:4;stroke-dasharray:none;stroke-opacity:1"
       transform="scale(-1,1)"
       rx="2"
       ry="2" />
    <rect
       style="opacity:1;fill:#777777;fill-opacity:1;stroke:none;stroke-width:1.15937829;stroke-linecap:round;stroke-linejoin:round;stroke-miterlimit:4;stroke-dasharray:none;stroke-opacity:1"
       id="rect821"
       width="30"
       height="30"
       x="-139.48215"
       y="26.964279"
       transform="scale(-1,1)"
       rx="3"
       ry="3" />
    <rect
       y="56.964279"
       x="-159.48215"
       height="50"
       width="50"
       id="rect823"
       style="opacity:1;fill:#357edd;fill-opacity:1;stroke:none;stroke-width:1.93229711;stroke-linecap:round;stroke-linejoin:round;stroke-miterlimit:4;stroke-dasharray:none;stroke-opacity:1"
       transform="scale(-1,1)"
       rx="5"
       ry="5" />
    <rect
       style="opacity:1;fill:#d5008f;fill-opacity:1;stroke:none;stroke-width:3.09167552;stroke-linecap:round;stroke-linejoin:round;stroke-miterlimit:4;stroke-dasharray:none;stroke-opacity:1"
       id="rect825"
       width="80"
       height="80"
       x="-109.48215"
       y="26.964279"
       transform="scale(-1,1)"
       rx="8"
       ry="8" />
    <path
       inkscape:connector-curvature="0"
       id="path831"
       style="font-style:normal;font-variant:normal;font-weight:900;font-stretch:normal;font-size:medium;line-height:125%;font-family:Avenir;-inkscape-font-specification:'Avenir Heavy';letter-spacing:-0.86518753px;word-spacing:0px;fill:#000000;fill-opacity:1;stroke:none;stroke-width:1.04074335px;stroke-linecap:butt;stroke-linejoin:miter;stroke-opacity:1"
       d="m 29.482143,67.089987 q 0,-3.5386 1.16563,-6.411 1.16564,-2.9141 3.20549,-4.954 2.08149,-2.0398 4.91231,-3.1222 2.87245,-1.124 6.28609,-1.124 3.455269,-0.04 6.327719,1.0407 2.87245,1.0408 4.95394,3.0806 2.08149,2.0399 3.24712,4.9124 1.16563,2.8724 1.16563,6.4109 0,3.4553 -1.16563,6.286099 -1.16563,2.8308 -3.24712,4.8707 -2.08149,2.0399 -4.95394,3.2055 -2.87245,1.124 -6.327719,1.1656 -3.41364,0 -6.28609,-1.0824 -2.83082,-1.124 -4.91231,-3.1222 -2.03985,-2.0398 -3.20549,-4.8707 -1.16563,-2.830799 -1.16563,-6.285999 z m 5.49513,-0.333 q 0,2.3729 0.7077,4.3711 0.7493,1.998199 2.08149,3.455299 1.33215,1.457 3.16386,2.2896 1.87334,0.833 4.16297,0.833 2.289639,0 4.162969,-0.833 1.87334,-0.833 3.2055,-2.2896 1.33215,-1.4571 2.03985,-3.455299 0.7493,-1.9982 0.7493,-4.3711 0,-2.2064 -0.7493,-4.1213 -0.7077,-1.915 -2.03985,-3.3304 -1.33216,-1.4571 -3.2055,-2.248 -1.87333,-0.833 -4.162969,-0.833 -2.28963,0 -4.16297,0.833 -1.83171,0.791 -3.16386,2.248 -1.33215,1.4154 -2.08149,3.3304 -0.7077,1.9149 -0.7077,4.1213 z" />
    <path
       inkscape:connector-curvature="0"
       id="path833"
       style="font-style:normal;font-variant:normal;font-weight:900;font-stretch:normal;font-size:medium;line-height:125%;font-family:Avenir;-inkscape-font-specification:'Avenir Heavy';letter-spacing:-0.86518753px;word-spacing:0px;fill:#000000;fill-opacity:1;stroke:none;stroke-width:1.04074335px;stroke-linecap:butt;stroke-linejoin:miter;stroke-opacity:1"
       d="m 76.824912,58.555887 q -0.8326,-1.2073 -2.24801,-1.7485 -1.37378,-0.583 -2.91408,-0.583 -0.9159,0 -1.79008,0.208 -0.8326,0.208 -1.5403,0.666 -0.6661,0.458 -1.08237,1.2073 -0.4163,0.708 -0.4163,1.7068 0,1.4987 1.04074,2.2896 1.04075,0.791 2.58105,1.3738 1.5403,0.583 3.37201,1.124 1.8317,0.541 3.37201,1.4987 1.540299,0.957 2.581039,2.5394 1.04074,1.5819 1.04074,4.204599 0,2.3729 -0.8742,4.163 -0.8742,1.7484 -2.372899,2.9141 -1.45704,1.1656 -3.41364,1.7484 -1.95659,0.583 -4.12134,0.583 -2.74756,0 -5.28698,-0.916 -2.53941,-0.916 -4.37112,-3.0806 l 3.95483,-3.83 q 0.9575,1.4571 2.49778,2.2896 1.58193,0.791 3.33038,0.791 0.9159,0 1.83171,-0.25 0.9159,-0.25 1.66519,-0.749 0.7493,-0.499 1.20726,-1.2489 0.4579,-0.791 0.4579,-1.7901 0,-1.623499 -1.04075,-2.497799 -1.04074,-0.874 -2.58104,-1.457 -1.5403,-0.624 -3.37201,-1.1656 -1.83171,-0.541 -3.37201,-1.457 -1.5403,-0.957 -2.58104,-2.4978 -1.04074,-1.582 -1.04074,-4.2046 0,-2.2897 0.9159,-3.9549 0.9575,-1.6651 2.45616,-2.7475 1.54029,-1.124 3.49689,-1.6652 1.9566,-0.541 3.99646,-0.541 2.33126,0 4.49601,0.708 2.206369,0.708 3.954819,2.3313 z" />
    <path
       inkscape:connector-curvature="0"
       id="path835"
       style="font-style:normal;font-variant:normal;font-weight:900;font-stretch:normal;font-size:medium;line-height:125%;font-family:Avenir;-inkscape-font-specification:'Avenir Heavy';letter-spacing:-0.86518753px;word-spacing:0px;fill:#000000;fill-opacity:1;stroke:none;stroke-width:1.04074335px;stroke-linecap:butt;stroke-linejoin:miter;stroke-opacity:1"
       d="m 82.880731,52.228087 h 11.6147 q 2.91408,0 5.620019,0.916 2.70593,0.874 4.78742,2.7059 2.08148,1.8317 3.33038,4.6209 1.24889,2.7476 1.24889,6.4943 0,3.7883 -1.45704,6.577399 -1.41541,2.7476 -3.70505,4.5793 -2.24801,1.7901 -5.037199,2.706 -2.74756,0.874 -5.41186,0.874 h -10.99026 z m 9.15855,24.728099 q 2.45615,0 4.6209,-0.541 2.20638,-0.583 3.829939,-1.7485 1.62356,-1.2072 2.53941,-3.080499 0.9575,-1.915 0.9575,-4.6209 0,-2.6643 -0.8326,-4.5793 -0.8326,-1.915 -2.33127,-3.0806 -1.457039,-1.2073 -3.496899,-1.7485 -1.99823,-0.583 -4.41275,-0.583 h -4.78742 v 19.982299 z" />
    <rect
       style="opacity:1;fill:#000000;fill-opacity:1;stroke:none;stroke-width:47.69574356;stroke-linecap:round;stroke-linejoin:round;stroke-miterlimit:4;stroke-dasharray:none;stroke-opacity:1"
       id="rect846"
       width="26.6"
       height="4.74579"
       x="109.48215"
       y="77.705551" />
    <g
       id="g974"
       transform="matrix(9.9999997,0,0,9.9999997,-268.79986,-962.67848)"
       style="fill:#ffffff">
      <path
         d="m 30.411,105.16545 q 6.94e-4,-0.0104 0.0055,-0.0114 l 0.0049,-0.001 q 0.140799,-0.006 0.208771,-0.006 0.0697,0 0.115135,0.0118 0.04543,0.0118 0.08323,0.0388 0.08601,0.0617 0.08601,0.17166 0,0.0801 -0.0489,0.14565 -0.04855,0.0656 -0.125886,0.0874 -0.05202,0.0149 -0.140105,0.0149 l -0.170277,6.9e-4 q -0.01352,0 -0.0156,-0.006 -0.0024,-0.006 -0.0024,-0.0101 0,-0.008 0.008,-0.0108 0.0049,-6.9e-4 0.01422,-10e-4 0.0094,-3.4e-4 0.01214,-3.4e-4 0.0062,-7e-4 0.0111,-0.002 0.0052,-0.001 0.009,-0.003 0.0042,-0.002 0.0069,-0.006 0.0028,-0.004 0.0045,-0.006 0.0017,-0.002 0.0031,-0.008 0.0014,-0.006 0.0021,-0.008 6.94e-4,-0.002 0.001,-0.009 6.94e-4,-0.007 6.94e-4,-0.009 0,-0.002 0,-0.009 0,-0.008 0,-0.009 v -0.27085 q 0,-0.0475 -0.009,-0.0603 -0.009,-0.0128 -0.05237,-0.0128 h -0.0062 q -0.0055,0 -0.0055,-0.009 0,-7e-4 0,-0.002 z m 0.141839,0.37697 q 0,0.0277 0.0111,0.0395 0.0111,0.0118 0.04439,0.0118 0.105772,0 0.167501,-0.0524 0.06173,-0.0524 0.06173,-0.16091 0,-0.0527 -0.01942,-0.0968 -0.01942,-0.0444 -0.05375,-0.0708 -0.02358,-0.0184 -0.04786,-0.027 -0.02428,-0.009 -0.06624,-0.0128 -0.02358,-0.002 -0.04959,-0.002 -0.01561,0 -0.03225,6.9e-4 -0.01561,0.001 -0.01561,0.0149 z"
         style="font-style:normal;font-variant:normal;font-weight:normal;font-stretch:normal;font-size:medium;line-height:125%;font-family:ETBembo;-inkscape-font-specification:ETBembo;letter-spacing:0.01176844px;word-spacing:0px;fill:#ffffff;fill-opacity:1;stroke:none;stroke-width:0.01775588px;stroke-linecap:butt;stroke-linejoin:miter;stroke-opacity:1"
         id="path855"
         inkscape:connector-curvature="0" />
      <path
         d="m 30.981108,105.55941 q 0,-0.0527 0.07526,-0.0725 0.02844,-0.008 0.06762,-0.026 0.008,-0.005 0.0076,-0.0128 l -6.93e-4,-0.0454 q -0.0014,-0.0638 -0.0482,-0.0642 -0.01214,0 -0.02636,0.0104 -0.01422,0.0104 -0.01422,0.0215 0,0.0121 0.0021,0.0173 -0.0035,0.003 -0.02011,0.0118 -0.01665,0.008 -0.02219,0.009 -0.0094,0.003 -0.01318,10e-4 -0.0035,-0.002 -0.0035,-0.0121 0,-0.0264 0.04508,-0.0603 0.03607,-0.0291 0.06658,-0.0291 0.02289,0 0.04508,0.0114 0.02254,0.0114 0.03433,0.0291 0.0087,0.0114 0.0104,0.0219 0.0017,0.0101 0.0017,0.0444 v 0.12901 q 0,0.0212 0.0035,0.0281 0.0038,0.007 0.01214,0.007 0.0087,0 0.01283,-0.002 0.0087,-0.003 0.01699,-0.0104 0.0035,-0.002 0.0066,-0.002 0.0069,0.001 0.0069,0.008 0,0.004 -0.0021,0.009 -0.04682,0.0413 -0.07525,0.0413 -0.03052,0 -0.03711,-0.0371 -0.0021,-0.002 -0.0028,-0.002 -6.93e-4,0 -0.0042,0.003 l -0.0035,0.003 q -0.02289,0.0198 -0.0378,0.0267 -0.01491,0.007 -0.03468,0.007 -0.03052,0 -0.04994,-0.0177 -0.01907,-0.018 -0.01907,-0.0465 z m 0.05479,-0.009 q 0,0.0166 0.0111,0.0281 0.01145,0.0111 0.02809,0.0111 0.01144,0 0.03156,-0.0128 0.02011,-0.0132 0.02428,-0.0246 v -0.0589 q 0,-10e-4 0,-0.003 0,-0.002 -6.94e-4,-0.004 -6.93e-4,-0.002 -0.0021,-0.002 -0.0014,0 -0.0035,6.9e-4 -0.0163,0.008 -0.05063,0.0222 -0.03815,0.0156 -0.03815,0.043 z"
         style="font-style:normal;font-variant:normal;font-weight:normal;font-stretch:normal;font-size:medium;line-height:125%;font-family:ETBembo;-inkscape-font-specification:ETBembo;letter-spacing:0.01176844px;word-spacing:0px;fill:#ffffff;fill-opacity:1;stroke:none;stroke-width:0.01775588px;stroke-linecap:butt;stroke-linejoin:miter;stroke-opacity:1"
         id="path857"
         inkscape:connector-curvature="0" />
      <path
         d="m 31.284185,105.33781 q 0.0014,-0.003 0.0055,-0.005 0.04058,-0.0205 0.06554,-0.0902 0,-0.002 0.0045,-0.005 0.0028,-0.001 0.0055,-0.001 0.0017,0 0.0031,7e-4 0.0042,0.001 0.0045,0.005 -10e-4,0.0208 -10e-4,0.0368 0,0.0156 10e-4,0.0257 6.94e-4,0.003 0.0035,0.006 0.0028,0.003 0.0052,0.003 h 0.07872 q 0.01214,0 0.0083,0.0111 -0.0014,0.0114 -0.0062,0.0236 -0.0035,0.006 -0.01144,0.006 l -0.06728,-0.001 q -0.0028,0 -0.0066,0.003 -0.0035,0.003 -0.0042,0.006 v 0.12553 q 0,0.0548 0.0097,0.0746 0.01006,0.0194 0.03572,0.0194 0.02289,0 0.04266,-0.0378 6.93e-4,-0.003 0.0069,-0.003 0.0066,3.5e-4 0.0094,0.004 0.0021,0.002 0.0021,0.006 0,0.003 -0.0014,0.007 -0.02913,0.0645 -0.08323,0.0649 -0.03329,0 -0.05479,-0.025 -0.02115,-0.025 -0.02115,-0.0638 v -0.0291 -0.14218 q 0,-0.006 -0.0042,-0.008 h -0.01422 q -0.0055,0 -0.01422,-0.002 -0.0031,-0.005 -0.0031,-0.01 0,-0.003 0.001,-0.005 z"
         style="font-style:normal;font-variant:normal;font-weight:normal;font-stretch:normal;font-size:medium;line-height:125%;font-family:ETBembo;-inkscape-font-specification:ETBembo;letter-spacing:0.01176844px;word-spacing:0px;fill:#ffffff;fill-opacity:1;stroke:none;stroke-width:0.01775588px;stroke-linecap:butt;stroke-linejoin:miter;stroke-opacity:1"
         id="path859"
         inkscape:connector-curvature="0" />
      <path
         d="m 31.524838,105.55941 q 0,-0.0527 0.07525,-0.0725 0.02844,-0.008 0.06762,-0.026 0.008,-0.005 0.0076,-0.0128 l -6.94e-4,-0.0454 q -0.0014,-0.0638 -0.0482,-0.0642 -0.01214,0 -0.02636,0.0104 -0.01422,0.0104 -0.01422,0.0215 0,0.0121 0.0021,0.0173 -0.0035,0.003 -0.02011,0.0118 -0.01665,0.008 -0.02219,0.009 -0.0094,0.003 -0.01318,10e-4 -0.0035,-0.002 -0.0035,-0.0121 0,-0.0264 0.04508,-0.0603 0.03607,-0.0291 0.06658,-0.0291 0.02289,0 0.04508,0.0114 0.02254,0.0114 0.03433,0.0291 0.0087,0.0114 0.0104,0.0219 0.0017,0.0101 0.0017,0.0444 v 0.12901 q 0,0.0212 0.0035,0.0281 0.0038,0.007 0.01214,0.007 0.0087,0 0.01283,-0.002 0.0087,-0.003 0.01699,-0.0104 0.0035,-0.002 0.0066,-0.002 0.0069,0.001 0.0069,0.008 0,0.004 -0.0021,0.009 -0.04682,0.0413 -0.07525,0.0413 -0.03052,0 -0.03711,-0.0371 -0.0021,-0.002 -0.0028,-0.002 -6.93e-4,0 -0.0042,0.003 l -0.0035,0.003 q -0.02289,0.0198 -0.0378,0.0267 -0.01491,0.007 -0.03468,0.007 -0.03052,0 -0.04994,-0.0177 -0.01907,-0.018 -0.01907,-0.0465 z m 0.05479,-0.009 q 0,0.0166 0.0111,0.0281 0.01144,0.0111 0.02809,0.0111 0.01144,0 0.03156,-0.0128 0.02011,-0.0132 0.02428,-0.0246 v -0.0589 q 0,-10e-4 0,-0.003 0,-0.002 -6.94e-4,-0.004 -6.93e-4,-0.002 -0.0021,-0.002 -0.0014,0 -0.0035,6.9e-4 -0.0163,0.008 -0.05063,0.0222 -0.03815,0.0156 -0.03815,0.043 z"
         style="font-style:normal;font-variant:normal;font-weight:normal;font-stretch:normal;font-size:medium;line-height:125%;font-family:ETBembo;-inkscape-font-specification:ETBembo;letter-spacing:0.01176844px;word-spacing:0px;fill:#ffffff;fill-opacity:1;stroke:none;stroke-width:0.01775588px;stroke-linecap:butt;stroke-linejoin:miter;stroke-opacity:1"
         id="path861"
         inkscape:connector-curvature="0" />
      <path
         d="m 32.015854,105.55941 q 0,-0.0527 0.07525,-0.0725 0.02844,-0.008 0.06762,-0.026 0.008,-0.005 0.0076,-0.0128 l -6.94e-4,-0.0454 q -0.0014,-0.0638 -0.0482,-0.0642 -0.01214,0 -0.02636,0.0104 -0.01422,0.0104 -0.01422,0.0215 0,0.0121 0.0021,0.0173 -0.0035,0.003 -0.02011,0.0118 -0.01665,0.008 -0.02219,0.009 -0.0094,0.003 -0.01318,10e-4 -0.0035,-0.002 -0.0035,-0.0121 0,-0.0264 0.04508,-0.0603 0.03607,-0.0291 0.06658,-0.0291 0.02289,0 0.04508,0.0114 0.02254,0.0114 0.03433,0.0291 0.0087,0.0114 0.0104,0.0219 0.0017,0.0101 0.0017,0.0444 v 0.12901 q 0,0.0212 0.0035,0.0281 0.0038,0.007 0.01214,0.007 0.0087,0 0.01283,-0.002 0.0087,-0.003 0.01699,-0.0104 0.0035,-0.002 0.0066,-0.002 0.0069,0.001 0.0069,0.008 0,0.004 -0.0021,0.009 -0.04682,0.0413 -0.07525,0.0413 -0.03052,0 -0.03711,-0.0371 -0.0021,-0.002 -0.0028,-0.002 -6.94e-4,0 -0.0042,0.003 l -0.0035,0.003 q -0.02289,0.0198 -0.0378,0.0267 -0.01491,0.007 -0.03468,0.007 -0.03052,0 -0.04994,-0.0177 -0.01907,-0.018 -0.01907,-0.0465 z m 0.05479,-0.009 q 0,0.0166 0.0111,0.0281 0.01144,0.0111 0.02809,0.0111 0.01144,0 0.03156,-0.0128 0.02011,-0.0132 0.02428,-0.0246 v -0.0589 q 0,-10e-4 0,-0.003 0,-0.002 -6.93e-4,-0.004 -6.94e-4,-0.002 -0.0021,-0.002 -0.0014,0 -0.0035,6.9e-4 -0.0163,0.008 -0.05063,0.0222 -0.03815,0.0156 -0.03815,0.043 z"
         style="font-style:normal;font-variant:normal;font-weight:normal;font-stretch:normal;font-size:medium;line-height:125%;font-family:ETBembo;-inkscape-font-specification:ETBembo;letter-spacing:0.01176844px;word-spacing:0px;fill:#ffffff;fill-opacity:1;stroke:none;stroke-width:0.01775588px;stroke-linecap:butt;stroke-linejoin:miter;stroke-opacity:1"
         id="path863"
         inkscape:connector-curvature="0" />
      <path
         d="m 32.328293,105.3926 q 0,-0.0385 0.0267,-0.0624 0.02705,-0.0243 0.06901,-0.0243 0.02705,0 0.05965,0.0135 0.0021,0.0284 0.0021,0.0496 0,0.0128 -6.93e-4,0.0229 0,0.003 -0.0097,0.003 -0.0042,0 -0.0073,-0.001 -0.0028,-0.001 -0.0021,-0.002 -0.0049,-0.0284 -0.01907,-0.044 -0.01422,-0.0156 -0.03433,-0.0156 -0.01699,0 -0.02809,0.0108 -0.01075,0.0104 -0.01075,0.0267 0,0.025 0.04265,0.0562 0.0069,0.005 0.0215,0.0146 0.01457,0.01 0.02497,0.018 0.01075,0.008 0.01942,0.0173 0.02428,0.0264 0.02428,0.059 0,0.0368 -0.0274,0.0621 -0.0274,0.025 -0.06589,0.025 -0.01838,0 -0.03537,-0.005 -6.94e-4,0 -0.0062,-0.002 -0.0052,-0.002 -0.008,-0.003 -0.0055,0 -0.0094,0.009 -0.0083,0.002 -0.01075,0.002 0,0 -3.46e-4,0 -0.0062,-7e-4 -0.0073,-0.007 -0.0062,-0.0499 -0.0062,-0.076 0,-0.003 0,-0.005 -6.94e-4,-0.004 0.0035,-0.005 0.0042,-0.001 0.01075,-6.9e-4 0.0035,0.001 0.0049,0.007 0.01491,0.0638 0.06242,0.0638 0.01907,0 0.0326,-0.0135 0.01353,-0.0135 0.01353,-0.0319 0,-0.007 -0.0017,-0.0135 -0.0017,-0.007 -0.0069,-0.0135 -0.0049,-0.007 -0.008,-0.0111 -0.0031,-0.005 -0.01179,-0.0108 -0.0083,-0.007 -0.01144,-0.009 -0.0028,-0.002 -0.01283,-0.009 -0.0097,-0.007 -0.0111,-0.008 -0.01977,-0.0135 -0.0319,-0.0232 -0.01214,-0.01 -0.02289,-0.0274 -0.0104,-0.0177 -0.0104,-0.0375 z"
         style="font-style:normal;font-variant:normal;font-weight:normal;font-stretch:normal;font-size:medium;line-height:125%;font-family:ETBembo;-inkscape-font-specification:ETBembo;letter-spacing:0.01176844px;word-spacing:0px;fill:#ffffff;fill-opacity:1;stroke:none;stroke-width:0.01775588px;stroke-linecap:butt;stroke-linejoin:miter;stroke-opacity:1"
         id="path865"
         inkscape:connector-curvature="0" />
      <path
         d="m 32.563398,105.3926 q 0,-0.0385 0.0267,-0.0624 0.02705,-0.0243 0.06901,-0.0243 0.02705,0 0.05965,0.0135 0.0021,0.0284 0.0021,0.0496 0,0.0128 -6.94e-4,0.0229 0,0.003 -0.0097,0.003 -0.0042,0 -0.0073,-0.001 -0.0028,-0.001 -0.0021,-0.002 -0.0049,-0.0284 -0.01907,-0.044 -0.01422,-0.0156 -0.03433,-0.0156 -0.01699,0 -0.02809,0.0108 -0.01075,0.0104 -0.01075,0.0267 0,0.025 0.04266,0.0562 0.0069,0.005 0.0215,0.0146 0.01457,0.01 0.02497,0.018 0.01075,0.008 0.01942,0.0173 0.02428,0.0264 0.02428,0.059 0,0.0368 -0.0274,0.0621 -0.0274,0.025 -0.06589,0.025 -0.01838,0 -0.03537,-0.005 -6.93e-4,0 -0.0062,-0.002 -0.0052,-0.002 -0.008,-0.003 -0.0055,0 -0.0094,0.009 -0.0083,0.002 -0.01075,0.002 0,0 -3.47e-4,0 -0.0062,-7e-4 -0.0073,-0.007 -0.0062,-0.0499 -0.0062,-0.076 0,-0.003 0,-0.005 -6.94e-4,-0.004 0.0035,-0.005 0.0042,-0.001 0.01075,-6.9e-4 0.0035,0.001 0.0049,0.007 0.01491,0.0638 0.06242,0.0638 0.01907,0 0.0326,-0.0135 0.01353,-0.0135 0.01353,-0.0319 0,-0.007 -0.0017,-0.0135 -0.0017,-0.007 -0.0069,-0.0135 -0.0049,-0.007 -0.008,-0.0111 -0.0031,-0.005 -0.01179,-0.0108 -0.0083,-0.007 -0.01144,-0.009 -0.0028,-0.002 -0.01283,-0.009 -0.0097,-0.007 -0.0111,-0.008 -0.01977,-0.0135 -0.0319,-0.0232 -0.01214,-0.01 -0.02289,-0.0274 -0.0104,-0.0177 -0.0104,-0.0375 z"
         style="font-style:normal;font-variant:normal;font-weight:normal;font-stretch:normal;font-size:medium;line-height:125%;font-family:ETBembo;-inkscape-font-specification:ETBembo;letter-spacing:0.01176844px;word-spacing:0px;fill:#ffffff;fill-opacity:1;stroke:none;stroke-width:0.01775588px;stroke-linecap:butt;stroke-linejoin:miter;stroke-opacity:1"
         id="path867"
         inkscape:connector-curvature="0" />
      <path
         d="m 32.791219,105.47133 q 0,-0.0697 0.04162,-0.11549 0.04162,-0.0458 0.104038,-0.0458 0.07317,0 0.102305,0.0628 l 0.0055,0.0118 q 0.0069,0.0135 0.01422,0.0229 10e-4,0.003 10e-4,0.007 0,0.002 -3.46e-4,0.004 -6.94e-4,0.006 -0.0097,0.007 -0.0274,0.001 -0.07491,0.001 -0.04751,0 -0.115483,-0.001 -0.01283,0 -0.01353,0.007 -0.0014,0.008 -0.0014,0.0212 0,0.0548 0.03052,0.0909 0.03052,0.0357 0.07595,0.0357 0.04959,0 0.08809,-0.0454 0.0035,-0.005 0.01075,-0.004 0.0042,0.001 0.0066,0.007 0.0024,0.005 3.47e-4,0.008 -0.02358,0.0277 -0.05028,0.0492 -0.03988,0.0305 -0.08392,0.0305 -0.05618,0 -0.09398,-0.0447 -0.03745,-0.0447 -0.03745,-0.10958 z m 0.06104,-0.0739 q -3.47e-4,0.002 0.0038,0.003 0.0049,0.002 0.0076,0.002 h 0.106467 q 0.0055,0 0.01144,-0.002 0.0062,-0.002 0.0055,-0.007 -0.008,-0.0291 -0.02566,-0.0454 -0.01769,-0.0163 -0.04023,-0.0163 -0.06901,0 -0.06901,0.0652 z"
         style="font-style:normal;font-variant:normal;font-weight:normal;font-stretch:normal;font-size:medium;line-height:125%;font-family:ETBembo;-inkscape-font-specification:ETBembo;letter-spacing:0.01176844px;word-spacing:0px;fill:#ffffff;fill-opacity:1;stroke:none;stroke-width:0.01775588px;stroke-linecap:butt;stroke-linejoin:miter;stroke-opacity:1"
         id="path869"
         inkscape:connector-curvature="0" />
      <path
         d="m 33.101925,105.33781 q 0.0014,-0.003 0.0055,-0.005 0.04057,-0.0205 0.06554,-0.0902 0,-0.002 0.0045,-0.005 0.0028,-0.001 0.0055,-0.001 0.0017,0 0.0031,7e-4 0.0042,0.001 0.0045,0.005 -10e-4,0.0208 -10e-4,0.0368 0,0.0156 10e-4,0.0257 6.94e-4,0.003 0.0035,0.006 0.0028,0.003 0.0052,0.003 h 0.07872 q 0.01214,0 0.0083,0.0111 -0.0014,0.0114 -0.0062,0.0236 -0.0035,0.006 -0.01144,0.006 l -0.06728,-0.001 q -0.0028,0 -0.0066,0.003 -0.0035,0.003 -0.0042,0.006 v 0.12553 q 0,0.0548 0.0097,0.0746 0.01006,0.0194 0.03572,0.0194 0.02289,0 0.04266,-0.0378 6.94e-4,-0.003 0.0069,-0.003 0.0066,3.5e-4 0.0094,0.004 0.0021,0.002 0.0021,0.006 0,0.003 -0.0014,0.007 -0.02913,0.0645 -0.08323,0.0649 -0.03329,0 -0.05479,-0.025 -0.02116,-0.025 -0.02116,-0.0638 v -0.0291 -0.14218 q 0,-0.006 -0.0042,-0.008 h -0.01422 q -0.0055,0 -0.01422,-0.002 -0.0031,-0.005 -0.0031,-0.01 0,-0.003 0.001,-0.005 z"
         style="font-style:normal;font-variant:normal;font-weight:normal;font-stretch:normal;font-size:medium;line-height:125%;font-family:ETBembo;-inkscape-font-specification:ETBembo;letter-spacing:0.01176844px;word-spacing:0px;fill:#ffffff;fill-opacity:1;stroke:none;stroke-width:0.01775588px;stroke-linecap:butt;stroke-linejoin:miter;stroke-opacity:1"
         id="path871"
         inkscape:connector-curvature="0" />
      <path
         d="m 33.522195,105.61212 q -0.001,-0.003 -0.001,-0.006 0,-0.004 0.0017,-0.009 0.0021,-0.005 0.01561,-0.005 0.02358,-10e-4 0.03052,-0.0139 0.0069,-0.0125 0.0069,-0.0579 v -0.10161 q 0,-0.0503 -0.0021,-0.0534 -0.0035,-0.008 -0.02913,-0.0114 l -0.0163,-0.002 q -0.0042,-6.9e-4 -0.0035,-0.009 6.94e-4,-0.009 0.0035,-0.0101 0.03052,-0.0142 0.09329,-0.0305 0.0017,-3.5e-4 0.0031,-3.5e-4 0.0035,0 0.0052,0.002 0.0021,0.003 0.0021,0.0108 v 0.042 q 6.94e-4,0.007 0.0094,7e-4 0.06901,-0.0482 0.111322,-0.0486 0.02427,0 0.04231,0.0139 0.01803,0.0139 0.02601,0.0382 0.0014,0.005 0.008,0 0.02497,-0.0177 0.03641,-0.025 0.01179,-0.008 0.03468,-0.0173 0.02324,-0.01 0.04231,-0.01 0.04682,0 0.06555,0.0427 0.0104,0.0243 0.0104,0.095 0,0.002 0,0.005 0,0.0191 -0.0014,0.0562 -0.0014,0.0368 -0.0014,0.0562 0,0.017 0.0083,0.0219 0.0087,0.005 0.03919,0.005 0.0021,-7e-4 0.0066,-3.5e-4 0.0049,3.5e-4 0.0069,0.002 0.0031,0.001 0.0031,0.008 0,0.002 -3.47e-4,0.005 0,0.005 -0.0021,0.008 -0.0017,0.003 -0.0038,0.003 -3.47e-4,0 -0.001,0 -0.02011,-6.9e-4 -0.05965,-6.9e-4 -0.03919,0 -0.09814,6.9e-4 -0.0069,0 -0.009,-0.004 -0.0021,-0.003 -0.0014,-0.0108 6.94e-4,-0.008 0.0062,-0.008 h 0.0073 q 0.02289,0 0.03052,-0.007 0.0076,-0.007 0.0097,-0.0302 0.0035,-0.0482 0.0038,-0.0995 0,-0.0659 -0.01075,-0.0884 -0.01075,-0.0229 -0.03988,-0.0229 -0.02636,0 -0.0867,0.0413 v 0.16403 q 0,0.0264 0.0076,0.0347 0.008,0.008 0.03156,0.008 0.0055,0 0.0073,0.002 0.0021,0.002 0.0028,0.008 0,0.004 -0.0024,0.008 -0.0021,0.004 -0.0049,0.004 -0.05341,-10e-4 -0.09571,-10e-4 -0.02844,0 -0.05202,7e-4 -0.0062,0 -0.0069,-0.009 -6.94e-4,-0.01 0.0055,-0.0125 0.0014,-7e-4 0.0094,-7e-4 0.02774,0 0.03503,-0.0121 0.0076,-0.0121 0.0076,-0.0603 v -0.11583 q 0,-0.0277 -0.01283,-0.0433 -0.01283,-0.0156 -0.03503,-0.0156 -0.02844,0 -0.08947,0.0413 v 0.16403 q 0,0.0271 0.0076,0.035 0.008,0.008 0.03503,0.008 0.0049,-0.001 0.0066,0 0.0049,0.001 0.0049,0.0125 -6.94e-4,0.004 -0.0028,0.007 -0.0017,0.003 -0.0038,0.003 -3.47e-4,0 -6.94e-4,0 -0.03468,-10e-4 -0.07248,-10e-4 -0.03745,0 -0.07803,10e-4 -0.0049,0 -0.0062,-0.005 z"
         style="font-style:normal;font-variant:normal;font-weight:normal;font-stretch:normal;font-size:medium;line-height:125%;font-family:ETBembo;-inkscape-font-specification:ETBembo;letter-spacing:0.01176844px;word-spacing:0px;fill:#ffffff;fill-opacity:1;stroke:none;stroke-width:0.01775588px;stroke-linecap:butt;stroke-linejoin:miter;stroke-opacity:1"
         id="path873"
         inkscape:connector-curvature="0" />
      <path
         d="m 34.116579,105.55941 q 0,-0.0527 0.07525,-0.0725 0.02844,-0.008 0.06762,-0.026 0.008,-0.005 0.0076,-0.0128 l -6.94e-4,-0.0454 q -0.0014,-0.0638 -0.0482,-0.0642 -0.01214,0 -0.02636,0.0104 -0.01422,0.0104 -0.01422,0.0215 0,0.0121 0.0021,0.0173 -0.0035,0.003 -0.02011,0.0118 -0.01665,0.008 -0.0222,0.009 -0.0094,0.003 -0.01318,10e-4 -0.0035,-0.002 -0.0035,-0.0121 0,-0.0264 0.04508,-0.0603 0.03607,-0.0291 0.06658,-0.0291 0.02289,0 0.04508,0.0114 0.02254,0.0114 0.03433,0.0291 0.0087,0.0114 0.0104,0.0219 0.0017,0.0101 0.0017,0.0444 v 0.12901 q 0,0.0212 0.0035,0.0281 0.0038,0.007 0.01214,0.007 0.0087,0 0.01283,-0.002 0.0087,-0.003 0.01699,-0.0104 0.0035,-0.002 0.0066,-0.002 0.0069,0.001 0.0069,0.008 0,0.004 -0.0021,0.009 -0.04682,0.0413 -0.07525,0.0413 -0.03052,0 -0.03711,-0.0371 -0.0021,-0.002 -0.0028,-0.002 -6.94e-4,0 -0.0042,0.003 l -0.0035,0.003 q -0.02289,0.0198 -0.0378,0.0267 -0.01491,0.007 -0.03468,0.007 -0.03052,0 -0.04994,-0.0177 -0.01907,-0.018 -0.01907,-0.0465 z m 0.05479,-0.009 q 0,0.0166 0.0111,0.0281 0.01144,0.0111 0.02809,0.0111 0.01144,0 0.03156,-0.0128 0.02012,-0.0132 0.02428,-0.0246 v -0.0589 q 0,-10e-4 0,-0.003 0,-0.002 -6.93e-4,-0.004 -6.94e-4,-0.002 -0.0021,-0.002 -0.0014,0 -0.0035,6.9e-4 -0.0163,0.008 -0.05063,0.0222 -0.03815,0.0156 -0.03815,0.043 z"
         style="font-style:normal;font-variant:normal;font-weight:normal;font-stretch:normal;font-size:medium;line-height:125%;font-family:ETBembo;-inkscape-font-specification:ETBembo;letter-spacing:0.01176844px;word-spacing:0px;fill:#ffffff;fill-opacity:1;stroke:none;stroke-width:0.01775588px;stroke-linecap:butt;stroke-linejoin:miter;stroke-opacity:1"
         id="path875"
         inkscape:connector-curvature="0" />
      <path
         d="m 34.416187,105.60103 q 0.0014,-0.007 0.0062,-0.007 h 0.0042 q 0.02497,0 0.0326,-0.0135 0.008,-0.0135 0.008,-0.0603 v -0.0975 q 0,-0.052 -0.0028,-0.0576 -0.0028,-0.006 -0.02774,-0.0114 l -0.01422,-0.003 q -0.0035,-6.9e-4 -0.0035,-0.009 0,-0.009 0.0035,-0.0101 0.01144,-0.002 0.04127,-0.0149 0.02982,-0.0128 0.04266,-0.0156 0.0035,-6.9e-4 0.0059,-6.9e-4 0.0104,0 0.0104,0.0128 v 0.0388 q 0,0.002 0.0024,0.007 0.0024,0.004 0.0052,0.002 0.03329,-0.0236 0.05896,-0.0364 0.02982,-0.0142 0.04994,-0.0142 0.07872,0 0.07872,0.12797 0,0.0211 -0.0028,0.0638 -0.0028,0.0427 -0.0028,0.0649 0,0.0163 0.0055,0.0211 0.0059,0.005 0.02983,0.005 0.0062,-0.004 0.01144,0.002 0.0021,0.004 0.0021,0.009 0,0.003 -6.94e-4,0.006 -6.93e-4,0.004 -0.0021,0.005 -0.0014,10e-4 -0.0066,10e-4 -0.0014,0 -0.0021,0 -0.01491,0 -0.06693,-3.5e-4 -0.01734,0 -0.03087,0 -0.0267,0 -0.03711,3.5e-4 -0.0069,0 -0.009,-0.002 -0.0017,-0.002 -0.0024,-0.009 0,-0.0121 0.0059,-0.0118 h 0.0049 q 0.02358,-0.002 0.03225,-0.0101 0.009,-0.008 0.0111,-0.0298 0.0042,-0.0413 0.0042,-0.12519 0,-0.0787 -0.05167,-0.0787 -0.03329,0 -0.08739,0.042 v 0.16056 q 0,0.0271 0.0076,0.0343 0.008,0.007 0.03572,0.007 0.0049,0 0.0062,0.0118 0,0.0115 -0.0097,0.0121 -0.0083,-3.5e-4 -0.02532,-3.5e-4 -0.01665,0 -0.04231,3.5e-4 -0.01699,3.5e-4 -0.03017,3.5e-4 -0.0267,0 -0.03815,-10e-4 -0.0087,0 -0.0097,-0.003 -0.0014,-0.003 -0.0014,-0.007 0,-0.002 6.94e-4,-0.005 z"
         style="font-style:normal;font-variant:normal;font-weight:normal;font-stretch:normal;font-size:medium;line-height:125%;font-family:ETBembo;-inkscape-font-specification:ETBembo;letter-spacing:0.01176844px;word-spacing:0px;fill:#ffffff;fill-opacity:1;stroke:none;stroke-width:0.01775588px;stroke-linecap:butt;stroke-linejoin:miter;stroke-opacity:1"
         id="path877"
         inkscape:connector-curvature="0" />
      <path
         d="m 34.800413,105.55941 q 0,-0.0527 0.07525,-0.0725 0.02844,-0.008 0.06762,-0.026 0.008,-0.005 0.0076,-0.0128 l -6.93e-4,-0.0454 q -0.0014,-0.0638 -0.04821,-0.0642 -0.01214,0 -0.02636,0.0104 -0.01422,0.0104 -0.01422,0.0215 0,0.0121 0.0021,0.0173 -0.0035,0.003 -0.02011,0.0118 -0.01665,0.008 -0.02219,0.009 -0.0094,0.003 -0.01318,10e-4 -0.0035,-0.002 -0.0035,-0.0121 0,-0.0264 0.04508,-0.0603 0.03607,-0.0291 0.06659,-0.0291 0.02289,0 0.04508,0.0114 0.02254,0.0114 0.03433,0.0291 0.0087,0.0114 0.0104,0.0219 0.0017,0.0101 0.0017,0.0444 v 0.12901 q 0,0.0212 0.0035,0.0281 0.0038,0.007 0.01214,0.007 0.0087,0 0.01283,-0.002 0.0087,-0.003 0.01699,-0.0104 0.0035,-0.002 0.0066,-0.002 0.0069,0.001 0.0069,0.008 0,0.004 -0.0021,0.009 -0.04682,0.0413 -0.07525,0.0413 -0.03052,0 -0.03711,-0.0371 -0.0021,-0.002 -0.0028,-0.002 -6.94e-4,0 -0.0042,0.003 l -0.0035,0.003 q -0.02289,0.0198 -0.0378,0.0267 -0.01491,0.007 -0.03468,0.007 -0.03052,0 -0.04994,-0.0177 -0.01907,-0.018 -0.01907,-0.0465 z m 0.05479,-0.009 q 0,0.0166 0.0111,0.0281 0.01145,0.0111 0.02809,0.0111 0.01144,0 0.03156,-0.0128 0.02011,-0.0132 0.02428,-0.0246 v -0.0589 q 0,-10e-4 0,-0.003 0,-0.002 -6.94e-4,-0.004 -6.94e-4,-0.002 -0.0021,-0.002 -0.0014,0 -0.0035,6.9e-4 -0.0163,0.008 -0.05063,0.0222 -0.03815,0.0156 -0.03815,0.043 z"
         style="font-style:normal;font-variant:normal;font-weight:normal;font-stretch:normal;font-size:medium;line-height:125%;font-family:ETBembo;-inkscape-font-specification:ETBembo;letter-spacing:0.01176844px;word-spacing:0px;fill:#ffffff;fill-opacity:1;stroke:none;stroke-width:0.01775588px;stroke-linecap:butt;stroke-linejoin:miter;stroke-opacity:1"
         id="path879"
         inkscape:connector-curvature="0" />
      <path
         d="m 35.107651,105.71443 q 0,-0.0243 0.01075,-0.0399 0.01075,-0.0156 0.0326,-0.0298 0.0028,-0.002 0.0055,-0.004 0.0031,-0.002 0.0062,-0.004 0.0031,-0.002 0.0052,-0.003 0.0035,-0.003 0.0049,-0.007 0.0017,-0.004 -10e-4,-0.006 -0.04959,-0.0177 -0.04994,-0.0524 0,-0.0142 0.02982,-0.0305 0.01491,-0.009 0.02705,-0.0156 0.008,-0.003 0.0035,-0.007 -0.05583,-0.0281 -0.05583,-0.0874 0,-0.051 0.03433,-0.085 0.03433,-0.0343 0.08496,-0.0343 0.04751,0 0.07525,0.0298 h 0.0055 q 0.01422,0 0.0645,-0.008 0.008,-0.001 0.0104,3.5e-4 0.0024,0.002 0.0031,0.01 0.0024,0.0208 0.0024,0.0319 0,0.001 0,0.003 -0.0014,0.009 -0.0073,0.009 -0.0094,0 -0.04404,-0.005 -0.0014,-6.9e-4 -0.0045,0.002 -0.0031,0.002 -0.0024,0.004 0.0062,0.0156 0.0062,0.0354 0,0.0475 -0.03433,0.0777 -0.03399,0.0302 -0.08566,0.0302 -0.01422,0 -0.02913,-0.004 -0.0014,0.002 -0.01977,0.0184 -0.01353,0.0114 -0.01353,0.0184 0,0.005 0.0028,0.009 0.0028,0.003 0.02358,0.008 0.02115,0.004 0.06173,0.004 0.07942,0.001 0.112015,0.0163 0.03641,0.0163 0.03641,0.0652 0,0.0541 -0.05514,0.0909 -0.05514,0.0371 -0.131782,0.0371 -0.03988,0 -0.07733,-0.0222 -0.03711,-0.0218 -0.03711,-0.0558 z m 0.05202,-0.0194 q -6.94e-4,0.0271 0.03017,0.044 0.03086,0.0173 0.07144,0.0173 0.03537,0 0.0704,-0.0232 0.03537,-0.0229 0.03537,-0.0493 0,-0.025 -0.01769,-0.0368 -0.01734,-0.0118 -0.06138,-0.0153 -0.01699,-0.001 -0.043,-0.001 -0.02566,0 -0.03919,-6.9e-4 -0.0014,0.003 -0.0094,0.0107 -0.03676,0.0368 -0.03676,0.0545 z m 0.01907,-0.28195 q 0,0.0427 0.01803,0.0676 0.01838,0.025 0.04578,0.025 0.02705,0 0.04335,-0.0212 0.0163,-0.0211 0.0163,-0.0579 0,-0.0406 -0.01873,-0.0666 -0.01873,-0.0263 -0.04647,-0.0263 -0.02497,0 -0.04162,0.0229 -0.01665,0.0225 -0.01665,0.0565 z"
         style="font-style:normal;font-variant:normal;font-weight:normal;font-stretch:normal;font-size:medium;line-height:125%;font-family:ETBembo;-inkscape-font-specification:ETBembo;letter-spacing:0.01176844px;word-spacing:0px;fill:#ffffff;fill-opacity:1;stroke:none;stroke-width:0.01775588px;stroke-linecap:butt;stroke-linejoin:miter;stroke-opacity:1"
         id="path881"
         inkscape:connector-curvature="0" />
      <path
         d="m 35.459972,105.47133 q 0,-0.0697 0.04162,-0.11549 0.04162,-0.0458 0.104039,-0.0458 0.07317,0 0.102304,0.0628 l 0.0055,0.0118 q 0.0069,0.0135 0.01422,0.0229 0.001,0.003 0.001,0.007 0,0.002 -3.47e-4,0.004 -6.94e-4,0.006 -0.0097,0.007 -0.0274,0.001 -0.07491,0.001 -0.04751,0 -0.115483,-0.001 -0.01283,0 -0.01353,0.007 -0.0014,0.008 -0.0014,0.0212 0,0.0548 0.03052,0.0909 0.03052,0.0357 0.07595,0.0357 0.04959,0 0.08809,-0.0454 0.0035,-0.005 0.01075,-0.004 0.0042,0.001 0.0066,0.007 0.0024,0.005 3.47e-4,0.008 -0.02358,0.0277 -0.05029,0.0492 -0.03988,0.0305 -0.08392,0.0305 -0.05618,0 -0.09398,-0.0447 -0.03745,-0.0447 -0.03745,-0.10958 z m 0.06104,-0.0739 q -3.47e-4,0.002 0.0038,0.003 0.0049,0.002 0.0076,0.002 h 0.106466 q 0.0055,0 0.01144,-0.002 0.0062,-0.002 0.0055,-0.007 -0.008,-0.0291 -0.02566,-0.0454 -0.01769,-0.0163 -0.04023,-0.0163 -0.06901,0 -0.06901,0.0652 z"
         style="font-style:normal;font-variant:normal;font-weight:normal;font-stretch:normal;font-size:medium;line-height:125%;font-family:ETBembo;-inkscape-font-specification:ETBembo;letter-spacing:0.01176844px;word-spacing:0px;fill:#ffffff;fill-opacity:1;stroke:none;stroke-width:0.01775588px;stroke-linecap:butt;stroke-linejoin:miter;stroke-opacity:1"
         id="path883"
         inkscape:connector-curvature="0" />
      <path
         d="m 35.767903,105.61212 q -10e-4,-0.003 -10e-4,-0.006 0,-0.004 0.0017,-0.009 0.0021,-0.005 0.01561,-0.005 0.02358,-10e-4 0.03052,-0.0139 0.0069,-0.0125 0.0069,-0.0579 v -0.10161 q 0,-0.0503 -0.0021,-0.0534 -0.0035,-0.008 -0.02913,-0.0114 l -0.0163,-0.002 q -0.0042,-6.9e-4 -0.0035,-0.009 6.94e-4,-0.009 0.0035,-0.0101 0.03052,-0.0142 0.09329,-0.0305 0.0017,-3.5e-4 0.0031,-3.5e-4 0.0035,0 0.0052,0.002 0.0021,0.003 0.0021,0.0108 v 0.042 q 6.93e-4,0.007 0.0094,7e-4 0.06901,-0.0482 0.111321,-0.0486 0.02428,0 0.04231,0.0139 0.01803,0.0139 0.02601,0.0382 0.0014,0.005 0.008,0 0.02497,-0.0177 0.03641,-0.025 0.01179,-0.008 0.03468,-0.0173 0.02323,-0.01 0.04231,-0.01 0.04682,0 0.06554,0.0427 0.0104,0.0243 0.0104,0.095 0,0.002 0,0.005 0,0.0191 -0.0014,0.0562 -0.0014,0.0368 -0.0014,0.0562 0,0.017 0.0083,0.0219 0.0087,0.005 0.03919,0.005 0.0021,-7e-4 0.0066,-3.5e-4 0.0049,3.5e-4 0.0069,0.002 0.0031,0.001 0.0031,0.008 0,0.002 -3.47e-4,0.005 0,0.005 -0.0021,0.008 -0.0017,0.003 -0.0038,0.003 -3.47e-4,0 -0.001,0 -0.02011,-6.9e-4 -0.05965,-6.9e-4 -0.03919,0 -0.09814,6.9e-4 -0.0069,0 -0.009,-0.004 -0.0021,-0.003 -0.0014,-0.0108 6.93e-4,-0.008 0.0062,-0.008 h 0.0073 q 0.02289,0 0.03052,-0.007 0.0076,-0.007 0.0097,-0.0302 0.0035,-0.0482 0.0038,-0.0995 0,-0.0659 -0.01075,-0.0884 -0.01075,-0.0229 -0.03988,-0.0229 -0.02636,0 -0.0867,0.0413 v 0.16403 q 0,0.0264 0.0076,0.0347 0.008,0.008 0.03156,0.008 0.0055,0 0.0073,0.002 0.0021,0.002 0.0028,0.008 0,0.004 -0.0024,0.008 -0.0021,0.004 -0.0049,0.004 -0.05341,-10e-4 -0.09572,-10e-4 -0.02844,0 -0.05202,7e-4 -0.0062,0 -0.0069,-0.009 -6.94e-4,-0.01 0.0055,-0.0125 0.0014,-7e-4 0.0094,-7e-4 0.02774,0 0.03503,-0.0121 0.0076,-0.0121 0.0076,-0.0603 v -0.11583 q 0,-0.0277 -0.01283,-0.0433 -0.01283,-0.0156 -0.03503,-0.0156 -0.02844,0 -0.08947,0.0413 v 0.16403 q 0,0.0271 0.0076,0.035 0.008,0.008 0.03503,0.008 0.0049,-0.001 0.0066,0 0.0049,0.001 0.0049,0.0125 -6.94e-4,0.004 -0.0028,0.007 -0.0017,0.003 -0.0038,0.003 -3.47e-4,0 -6.94e-4,0 -0.03468,-10e-4 -0.07248,-10e-4 -0.03745,0 -0.07803,10e-4 -0.0049,0 -0.0062,-0.005 z"
         style="font-style:normal;font-variant:normal;font-weight:normal;font-stretch:normal;font-size:medium;line-height:125%;font-family:ETBembo;-inkscape-font-specification:ETBembo;letter-spacing:0.01176844px;word-spacing:0px;fill:#ffffff;fill-opacity:1;stroke:none;stroke-width:0.01775588px;stroke-linecap:butt;stroke-linejoin:miter;stroke-opacity:1"
         id="path885"
         inkscape:connector-curvature="0" />
      <path
         d="m 36.361593,105.47133 q 0,-0.0697 0.04162,-0.11549 0.04162,-0.0458 0.104038,-0.0458 0.07317,0 0.102304,0.0628 l 0.0055,0.0118 q 0.0069,0.0135 0.01422,0.0229 10e-4,0.003 10e-4,0.007 0,0.002 -3.47e-4,0.004 -6.93e-4,0.006 -0.0097,0.007 -0.0274,0.001 -0.07491,0.001 -0.04751,0 -0.115482,-0.001 -0.01283,0 -0.01353,0.007 -0.0014,0.008 -0.0014,0.0212 0,0.0548 0.03052,0.0909 0.03052,0.0357 0.07595,0.0357 0.04959,0 0.08809,-0.0454 0.0035,-0.005 0.01075,-0.004 0.0042,0.001 0.0066,0.007 0.0024,0.005 3.47e-4,0.008 -0.02358,0.0277 -0.05028,0.0492 -0.03988,0.0305 -0.08393,0.0305 -0.05618,0 -0.09398,-0.0447 -0.03745,-0.0447 -0.03745,-0.10958 z m 0.06104,-0.0739 q -3.47e-4,0.002 0.0038,0.003 0.0049,0.002 0.0076,0.002 h 0.106466 q 0.0055,0 0.01144,-0.002 0.0062,-0.002 0.0055,-0.007 -0.008,-0.0291 -0.02566,-0.0454 -0.01769,-0.0163 -0.04023,-0.0163 -0.06901,0 -0.06901,0.0652 z"
         style="font-style:normal;font-variant:normal;font-weight:normal;font-stretch:normal;font-size:medium;line-height:125%;font-family:ETBembo;-inkscape-font-specification:ETBembo;letter-spacing:0.01176844px;word-spacing:0px;fill:#ffffff;fill-opacity:1;stroke:none;stroke-width:0.01775588px;stroke-linecap:butt;stroke-linejoin:miter;stroke-opacity:1"
         id="path887"
         inkscape:connector-curvature="0" />
      <path
         d="m 36.668831,105.60103 q 0.0014,-0.007 0.0062,-0.007 h 0.0042 q 0.02497,0 0.0326,-0.0135 0.008,-0.0135 0.008,-0.0603 v -0.0975 q 0,-0.052 -0.0028,-0.0576 -0.0028,-0.006 -0.02774,-0.0114 l -0.01422,-0.003 q -0.0035,-6.9e-4 -0.0035,-0.009 0,-0.009 0.0035,-0.0101 0.01144,-0.002 0.04127,-0.0149 0.02983,-0.0128 0.04266,-0.0156 0.0035,-6.9e-4 0.0059,-6.9e-4 0.0104,0 0.0104,0.0128 v 0.0388 q 0,0.002 0.0024,0.007 0.0024,0.004 0.0052,0.002 0.03329,-0.0236 0.05895,-0.0364 0.02983,-0.0142 0.04994,-0.0142 0.07872,0 0.07872,0.12797 0,0.0211 -0.0028,0.0638 -0.0028,0.0427 -0.0028,0.0649 0,0.0163 0.0055,0.0211 0.0059,0.005 0.02982,0.005 0.0062,-0.004 0.01145,0.002 0.0021,0.004 0.0021,0.009 0,0.003 -6.93e-4,0.006 -6.94e-4,0.004 -0.0021,0.005 -0.0014,10e-4 -0.0066,10e-4 -0.0014,0 -0.0021,0 -0.01491,0 -0.06693,-3.5e-4 -0.01734,0 -0.03086,0 -0.0267,0 -0.03711,3.5e-4 -0.0069,0 -0.009,-0.002 -0.0017,-0.002 -0.0024,-0.009 0,-0.0121 0.0059,-0.0118 h 0.0049 q 0.02358,-0.002 0.03225,-0.0101 0.009,-0.008 0.0111,-0.0298 0.0042,-0.0413 0.0042,-0.12519 0,-0.0787 -0.05167,-0.0787 -0.03329,0 -0.08739,0.042 v 0.16056 q 0,0.0271 0.0076,0.0343 0.008,0.007 0.03572,0.007 0.0049,0 0.0062,0.0118 0,0.0115 -0.0097,0.0121 -0.0083,-3.5e-4 -0.02532,-3.5e-4 -0.01665,0 -0.04231,3.5e-4 -0.01699,3.5e-4 -0.03017,3.5e-4 -0.0267,0 -0.03815,-10e-4 -0.0087,0 -0.0097,-0.003 -0.0014,-0.003 -0.0014,-0.007 0,-0.002 6.94e-4,-0.005 z"
         style="font-style:normal;font-variant:normal;font-weight:normal;font-stretch:normal;font-size:medium;line-height:125%;font-family:ETBembo;-inkscape-font-specification:ETBembo;letter-spacing:0.01176844px;word-spacing:0px;fill:#ffffff;fill-opacity:1;stroke:none;stroke-width:0.01775588px;stroke-linecap:butt;stroke-linejoin:miter;stroke-opacity:1"
         id="path889"
         inkscape:connector-curvature="0" />
      <path
         d="m 37.050283,105.33781 q 0.0014,-0.003 0.0055,-0.005 0.04058,-0.0205 0.06554,-0.0902 0,-0.002 0.0045,-0.005 0.0028,-0.001 0.0055,-0.001 0.0017,0 0.0031,7e-4 0.0042,0.001 0.0045,0.005 -10e-4,0.0208 -10e-4,0.0368 0,0.0156 10e-4,0.0257 6.94e-4,0.003 0.0035,0.006 0.0028,0.003 0.0052,0.003 h 0.07872 q 0.01214,0 0.0083,0.0111 -0.0014,0.0114 -0.0062,0.0236 -0.0035,0.006 -0.01144,0.006 l -0.06728,-0.001 q -0.0028,0 -0.0066,0.003 -0.0035,0.003 -0.0042,0.006 v 0.12553 q 0,0.0548 0.0097,0.0746 0.01006,0.0194 0.03572,0.0194 0.02289,0 0.04266,-0.0378 6.93e-4,-0.003 0.0069,-0.003 0.0066,3.5e-4 0.0094,0.004 0.0021,0.002 0.0021,0.006 0,0.003 -0.0014,0.007 -0.02913,0.0645 -0.08323,0.0649 -0.03329,0 -0.05479,-0.025 -0.02115,-0.025 -0.02115,-0.0638 v -0.0291 -0.14218 q 0,-0.006 -0.0042,-0.008 h -0.01422 q -0.0055,0 -0.01422,-0.002 -0.0031,-0.005 -0.0031,-0.01 0,-0.003 10e-4,-0.005 z"
         style="font-style:normal;font-variant:normal;font-weight:normal;font-stretch:normal;font-size:medium;line-height:125%;font-family:ETBembo;-inkscape-font-specification:ETBembo;letter-spacing:0.01176844px;word-spacing:0px;fill:#ffffff;fill-opacity:1;stroke:none;stroke-width:0.01775588px;stroke-linecap:butt;stroke-linejoin:miter;stroke-opacity:1"
         id="path891"
         inkscape:connector-curvature="0" />
    </g>
    <g
       id="g990"
       transform="matrix(9.9999997,0,0,9.9999997,-263.9157,-962.67848)"
       style="fill:#ffffff">
      <path
         d="m 37.459802,105.33261 q -3.47e-4,-0.002 -3.47e-4,-0.004 0,-0.004 0.001,-0.006 0.0014,-0.005 0.01006,-0.003 0.0069,0 0.02636,6.9e-4 0.01977,7e-4 0.04439,7e-4 0.02497,0 0.05792,-0.001 0.0014,0 0.0035,0 0.0069,-6.9e-4 0.0083,0.006 0.0021,0.004 10e-4,0.01 -10e-4,0.005 -0.0052,0.005 -0.03607,0.001 -0.03607,0.0166 0,0.009 0.03052,0.0857 0.01561,0.0399 0.03815,0.094 0.0014,0.003 0.0045,0.006 0.0035,0.003 0.0062,-7e-4 l 0.06381,-0.14981 v 6.9e-4 q -0.01561,-0.0312 -0.02254,-0.0385 -0.01144,-0.0115 -0.03121,-0.0125 -0.0021,0 -0.0066,-3.4e-4 -0.0042,-7e-4 -0.0069,-7e-4 -0.0049,0 -0.0052,-0.0104 -0.0014,-0.0114 0.0038,-0.0114 0.06867,0.002 0.105773,0.002 0.02774,0 0.03815,-0.001 0.01145,-10e-4 0.01353,0.005 0.0014,0.004 6.94e-4,0.01 -6.94e-4,0.005 -0.0021,0.007 -0.03745,7e-4 -0.03745,0.0184 0,0.01 0.0104,0.035 l 0.05965,0.14427 q 0.0021,0.003 0.0055,6.9e-4 0.0038,-0.003 0.0052,-0.007 0.05757,-0.13421 0.06173,-0.15744 10e-4,-0.005 10e-4,-0.01 -3.46e-4,-0.0104 -0.0059,-0.0153 -0.0083,-0.007 -0.02566,-0.008 -0.01353,0 -0.02046,-0.001 -0.0035,-10e-4 -0.0045,-0.0114 -6.94e-4,-0.0104 0.0059,-0.0104 0.02601,6.9e-4 0.05687,6.9e-4 0.03086,0 0.06658,-6.9e-4 6.94e-4,0 0.001,0 0.0042,0 0.0055,0.005 0.0014,0.003 0.0014,0.007 0,0.002 -3.47e-4,0.004 -10e-4,0.006 -0.0038,0.006 -0.02844,0.003 -0.03641,0.0142 -0.0035,0.006 -0.01491,0.0329 -0.01561,0.0385 -0.09086,0.22576 -0.0021,0.006 -0.0035,0.007 -0.0014,0.001 -0.0087,0.002 -0.0087,0.002 -0.01179,0.002 -10e-4,0 -0.0017,-3.5e-4 -0.0049,-6.9e-4 -0.0069,-0.006 l -0.0014,-0.003 -0.07699,-0.18554 q -0.0021,-0.004 -0.0069,0.005 l -0.07595,0.17894 q -0.0021,0.009 -0.0094,0.009 -0.0014,7e-4 -0.0042,7e-4 h -0.008 q -0.0049,0 -0.0062,-7e-4 -0.0042,-6.9e-4 -0.0062,-0.005 l -0.0017,-0.003 -0.08635,-0.21363 q -0.01561,-0.0399 -0.02532,-0.0489 -0.0097,-0.009 -0.03676,-0.0111 -0.0035,-0.001 -0.0042,-0.008 z"
         style="font-style:normal;font-variant:normal;font-weight:normal;font-stretch:normal;font-size:medium;line-height:125%;font-family:ETBembo;-inkscape-font-specification:ETBembo;letter-spacing:0.01176844px;word-spacing:0px;fill:#ffffff;fill-opacity:1;stroke:none;stroke-width:0.01775588px;stroke-linecap:butt;stroke-linejoin:miter;stroke-opacity:1"
         id="path893"
         inkscape:connector-curvature="0" />
      <path
         d="m 38.019853,105.60554 q -3.47e-4,-0.002 -3.47e-4,-0.004 0,-0.008 0.0059,-0.009 l 0.0094,-0.001 q 0.03052,-0.002 0.03607,-0.0111 0.0059,-0.009 0.0059,-0.0548 v -0.12727 q 0,-0.0264 -0.0031,-0.0312 -0.0028,-0.005 -0.01595,-0.008 -0.0163,-0.003 -0.02913,-0.008 -0.0035,-7e-4 -0.0042,-0.008 -3.47e-4,-0.008 0.0031,-0.01 0.07525,-0.0277 0.08601,-0.0298 0.0038,-0.001 0.0069,-0.001 0.01144,0 0.01179,0.0184 v 0.20461 q 0,0.027 6.94e-4,0.0368 6.94e-4,0.0191 0.0066,0.0236 0.0059,0.004 0.02878,0.004 0.0035,-0.001 0.0076,0.002 0.0045,0.003 0.0052,0.006 0,6.9e-4 -3.46e-4,0.003 -3.47e-4,0.002 -3.47e-4,0.004 0,0.0114 -0.01006,0.0114 -0.04786,-0.001 -0.08392,-0.001 -0.03607,0 -0.06034,0.001 -0.0049,0 -0.0062,-0.0114 z m 0.04716,-0.39986 q -0.0104,-0.0104 -0.0104,-0.026 0,-0.0156 0.0111,-0.0264 0.0111,-0.0108 0.0274,-0.0108 0.01699,0 0.02844,0.0104 0.01144,0.0104 0.01144,0.0267 0,0.0156 -0.01214,0.026 -0.01214,0.0101 -0.02844,0.0101 -0.01699,0 -0.0274,-0.0101 z"
         style="font-style:normal;font-variant:normal;font-weight:normal;font-stretch:normal;font-size:medium;line-height:125%;font-family:ETBembo;-inkscape-font-specification:ETBembo;letter-spacing:0.01176844px;word-spacing:0px;fill:#ffffff;fill-opacity:1;stroke:none;stroke-width:0.01775588px;stroke-linecap:butt;stroke-linejoin:miter;stroke-opacity:1"
         id="path895"
         inkscape:connector-curvature="0" />
      <path
         d="m 38.220972,105.33781 q 0.0014,-0.003 0.0055,-0.005 0.04057,-0.0205 0.06555,-0.0902 0,-0.002 0.0045,-0.005 0.0028,-0.001 0.0055,-0.001 0.0017,0 0.0031,7e-4 0.0042,0.001 0.0045,0.005 -10e-4,0.0208 -10e-4,0.0368 0,0.0156 10e-4,0.0257 6.94e-4,0.003 0.0035,0.006 0.0028,0.003 0.0052,0.003 h 0.07872 q 0.01214,0 0.0083,0.0111 -0.0014,0.0114 -0.0062,0.0236 -0.0035,0.006 -0.01144,0.006 l -0.06728,-0.001 q -0.0028,0 -0.0066,0.003 -0.0035,0.003 -0.0042,0.006 v 0.12553 q 0,0.0548 0.0097,0.0746 0.01006,0.0194 0.03572,0.0194 0.02289,0 0.04266,-0.0378 6.94e-4,-0.003 0.0069,-0.003 0.0066,3.5e-4 0.0094,0.004 0.0021,0.002 0.0021,0.006 0,0.003 -0.0014,0.007 -0.02913,0.0645 -0.08323,0.0649 -0.03329,0 -0.05479,-0.025 -0.02116,-0.025 -0.02116,-0.0638 v -0.0291 -0.14218 q 0,-0.006 -0.0042,-0.008 h -0.01422 q -0.0055,0 -0.01422,-0.002 -0.0031,-0.005 -0.0031,-0.01 0,-0.003 10e-4,-0.005 z"
         style="font-style:normal;font-variant:normal;font-weight:normal;font-stretch:normal;font-size:medium;line-height:125%;font-family:ETBembo;-inkscape-font-specification:ETBembo;letter-spacing:0.01176844px;word-spacing:0px;fill:#ffffff;fill-opacity:1;stroke:none;stroke-width:0.01775588px;stroke-linecap:butt;stroke-linejoin:miter;stroke-opacity:1"
         id="path897"
         inkscape:connector-curvature="0" />
      <path
         d="m 38.458157,105.59513 q 6.93e-4,-6.9e-4 0.01491,-0.004 0.02428,-0.001 0.03052,-0.0132 0.0062,-0.0121 0.0062,-0.0569 v -0.3246 l -6.93e-4,-0.027 q 0,-0.0156 -0.01769,-0.0184 -0.0049,-6.9e-4 -0.01457,-0.002 -0.0094,-10e-4 -0.01457,-0.002 -0.0042,-6.9e-4 -0.0049,-0.009 -6.93e-4,-0.009 0.0049,-0.0108 0.03191,-0.0128 0.09086,-0.0298 0.0021,-7e-4 0.0038,-7e-4 0.0035,0 0.0055,0.002 0.0035,0.003 0.0035,0.0142 v 0.21883 q 0,0.005 0.0024,0.0104 0.0028,0.005 0.0062,0.003 0.02844,-0.0177 0.04959,-0.0257 0.0215,-0.008 0.04994,-0.008 0.05965,0 0.07525,0.0503 0.008,0.0236 0.009,0.0787 0,0.017 -0.0014,0.0486 -0.0014,0.0312 -0.0014,0.0333 -0.0014,0.0312 -0.0014,0.0468 0,0.0135 0.008,0.0173 0.0083,0.004 0.03676,0.004 0.0069,0 0.0083,0.003 0.0017,0.003 0.0024,0.0114 3.47e-4,0.002 3.47e-4,0.004 0,0.008 -0.0049,0.008 -0.02601,3.4e-4 -0.05653,3.4e-4 -0.01526,0 -0.03156,0 -0.0489,-3.4e-4 -0.06312,-3.4e-4 -0.01144,0 -0.01144,-0.0121 -0.0014,-0.0115 0.0059,-0.0111 h 0.0042 q 0.02497,0 0.03329,-0.007 0.0087,-0.007 0.01075,-0.0271 0.0049,-0.0426 0.0049,-0.0971 0,-0.0468 -0.0038,-0.0652 -0.0038,-0.0187 -0.01456,-0.0309 -0.01699,-0.0184 -0.04404,-0.0184 -0.01353,0 -0.02705,0.005 -0.01352,0.005 -0.01942,0.008 -0.0059,0.003 -0.02324,0.0139 -0.0035,0.002 -0.0035,0.008 v 0.16993 q 0,0.0271 0.0073,0.0343 0.0076,0.007 0.03121,0.007 0.01006,0 0.01075,0.006 0,0.006 6.93e-4,0.009 0,0.004 -0.0028,0.007 -0.0021,0.002 -0.0045,0.002 -6.94e-4,0 -0.0014,0 -0.009,-3.5e-4 -0.02705,-3.5e-4 -0.01769,0 -0.04439,3.5e-4 -0.02636,3.5e-4 -0.04474,3.5e-4 -0.01838,0 -0.02878,-3.5e-4 -3.46e-4,0 -6.93e-4,0 -0.0024,0 -0.0042,-0.003 -0.0017,-0.003 -0.0017,-0.008 0,-0.007 0.0024,-0.0101 z"
         style="font-style:normal;font-variant:normal;font-weight:normal;font-stretch:normal;font-size:medium;line-height:125%;font-family:ETBembo;-inkscape-font-specification:ETBembo;letter-spacing:0.01176844px;word-spacing:0px;fill:#ffffff;fill-opacity:1;stroke:none;stroke-width:0.01775588px;stroke-linecap:butt;stroke-linejoin:miter;stroke-opacity:1"
         id="path899"
         inkscape:connector-curvature="0" />
      <path
         d="m 39.018532,105.79593 q 10e-4,-0.008 0.0069,-0.008 h 0.0062 q 0.02983,0 0.03745,-0.0139 0.008,-0.0139 0.008,-0.0659 v -0.29408 -0.017 q 0,-0.0135 -0.0031,-0.017 -0.0031,-0.003 -0.01526,-0.007 -0.0042,-0.001 -0.01248,-0.004 -0.008,-0.003 -0.01248,-0.004 -0.0042,-6.9e-4 -0.0045,-0.007 -3.47e-4,-0.006 0.0017,-0.008 6.93e-4,-10e-4 0.0042,-0.005 l 0.07838,-0.0493 q 0.0076,-0.005 0.01214,-0.005 0.0069,0 0.0069,0.0108 v 0.044 q 0,0.0142 0.0055,0.0135 6.94e-4,0 0.0014,-6.9e-4 0.06381,-0.0454 0.100917,-0.0454 0.04474,0 0.07768,0.0427 0.03329,0.0423 0.03329,0.0985 0,0.0676 -0.04716,0.11791 -0.04682,0.0499 -0.109934,0.0499 -0.02115,0 -0.05306,-0.0101 -0.0042,-10e-4 -0.0066,3.4e-4 -0.0021,0.002 -0.0021,0.0111 v 0.0843 q 0,0.051 0.008,0.0642 0.0083,0.0135 0.03815,0.0135 h 0.01006 q 0.01075,0 0.01283,0.006 0.0028,0.0101 -6.94e-4,0.0163 -0.0021,0.004 -0.0094,0.004 -0.01595,-6.9e-4 -0.04196,-6.9e-4 -0.01977,0 -0.04543,3.5e-4 -0.03572,6.9e-4 -0.05479,6.9e-4 -0.01248,0 -0.01769,-3.5e-4 -0.0094,0 -0.01144,-0.003 -0.0021,-0.003 -0.0021,-0.009 0,-0.002 3.47e-4,-0.004 z m 0.114096,-0.24137 q 0.04058,0.0385 0.08184,0.0385 0.03537,0 0.05826,-0.0312 0.02323,-0.0316 0.02323,-0.0791 0,-0.0541 -0.02636,-0.0902 -0.02601,-0.0361 -0.0645,-0.0361 -0.02983,0 -0.06832,0.0305 -0.0042,0.004 -0.0042,0.0125 z"
         style="font-style:normal;font-variant:normal;font-weight:normal;font-stretch:normal;font-size:medium;line-height:125%;font-family:ETBembo;-inkscape-font-specification:ETBembo;letter-spacing:0.01176844px;word-spacing:0px;fill:#ffffff;fill-opacity:1;stroke:none;stroke-width:0.01775588px;stroke-linecap:butt;stroke-linejoin:miter;stroke-opacity:1"
         id="path901"
         inkscape:connector-curvature="0" />
      <path
         d="m 39.397903,105.59513 q 6.93e-4,-6.9e-4 0.01491,-0.004 0.02428,-0.001 0.03052,-0.0132 0.0062,-0.0121 0.0062,-0.0569 v -0.3246 l -6.93e-4,-0.027 q 0,-0.0156 -0.01769,-0.0184 -0.0049,-6.9e-4 -0.01457,-0.002 -0.0094,-10e-4 -0.01457,-0.002 -0.0042,-6.9e-4 -0.0049,-0.009 -6.93e-4,-0.009 0.0049,-0.0108 0.0319,-0.0128 0.09086,-0.0298 0.0021,-7e-4 0.0038,-7e-4 0.0035,0 0.0055,0.002 0.0035,0.003 0.0035,0.0142 v 0.21883 q 0,0.005 0.0024,0.0104 0.0028,0.005 0.0062,0.003 0.02844,-0.0177 0.04959,-0.0257 0.0215,-0.008 0.04994,-0.008 0.05965,0 0.07525,0.0503 0.008,0.0236 0.009,0.0787 0,0.017 -0.0014,0.0486 -0.0014,0.0312 -0.0014,0.0333 -0.0014,0.0312 -0.0014,0.0468 0,0.0135 0.008,0.0173 0.0083,0.004 0.03676,0.004 0.0069,0 0.0083,0.003 0.0017,0.003 0.0024,0.0114 3.47e-4,0.002 3.47e-4,0.004 0,0.008 -0.0049,0.008 -0.02601,3.4e-4 -0.05653,3.4e-4 -0.01526,0 -0.03156,0 -0.0489,-3.4e-4 -0.06312,-3.4e-4 -0.01144,0 -0.01144,-0.0121 -0.0014,-0.0115 0.0059,-0.0111 h 0.0042 q 0.02497,0 0.03329,-0.007 0.0087,-0.007 0.01075,-0.0271 0.0049,-0.0426 0.0049,-0.0971 0,-0.0468 -0.0038,-0.0652 -0.0038,-0.0187 -0.01456,-0.0309 -0.01699,-0.0184 -0.04404,-0.0184 -0.01353,0 -0.02705,0.005 -0.01352,0.005 -0.01942,0.008 -0.0059,0.003 -0.02323,0.0139 -0.0035,0.002 -0.0035,0.008 v 0.16993 q 0,0.0271 0.0073,0.0343 0.0076,0.007 0.03121,0.007 0.01006,0 0.01075,0.006 0,0.006 6.93e-4,0.009 0,0.004 -0.0028,0.007 -0.0021,0.002 -0.0045,0.002 -6.94e-4,0 -0.0014,0 -0.009,-3.5e-4 -0.02705,-3.5e-4 -0.01769,0 -0.04439,3.5e-4 -0.02636,3.5e-4 -0.04474,3.5e-4 -0.01838,0 -0.02878,-3.5e-4 -3.47e-4,0 -6.93e-4,0 -0.0024,0 -0.0042,-0.003 -0.0017,-0.003 -0.0017,-0.008 0,-0.007 0.0024,-0.0101 z"
         style="font-style:normal;font-variant:normal;font-weight:normal;font-stretch:normal;font-size:medium;line-height:125%;font-family:ETBembo;-inkscape-font-specification:ETBembo;letter-spacing:0.01176844px;word-spacing:0px;fill:#ffffff;fill-opacity:1;stroke:none;stroke-width:0.01775588px;stroke-linecap:butt;stroke-linejoin:miter;stroke-opacity:1"
         id="path903"
         inkscape:connector-curvature="0" />
      <path
         d="m 39.782823,105.60554 q -3.47e-4,-0.002 -3.47e-4,-0.004 0,-0.008 0.0059,-0.009 l 0.0094,-0.001 q 0.03052,-0.002 0.03607,-0.0111 0.0059,-0.009 0.0059,-0.0548 v -0.12727 q 0,-0.0264 -0.0031,-0.0312 -0.0028,-0.005 -0.01595,-0.008 -0.0163,-0.003 -0.02913,-0.008 -0.0035,-7e-4 -0.0042,-0.008 -3.47e-4,-0.008 0.0031,-0.01 0.07525,-0.0277 0.08601,-0.0298 0.0038,-0.001 0.0069,-0.001 0.01145,0 0.01179,0.0184 v 0.20461 q 0,0.027 6.94e-4,0.0368 6.94e-4,0.0191 0.0066,0.0236 0.0059,0.004 0.02878,0.004 0.0035,-0.001 0.0076,0.002 0.0045,0.003 0.0052,0.006 0,6.9e-4 -3.46e-4,0.003 -3.47e-4,0.002 -3.47e-4,0.004 0,0.0114 -0.01006,0.0114 -0.04786,-0.001 -0.08393,-0.001 -0.03607,0 -0.06034,0.001 -0.0049,0 -0.0062,-0.0114 z m 0.04716,-0.39986 q -0.0104,-0.0104 -0.0104,-0.026 0,-0.0156 0.0111,-0.0264 0.0111,-0.0108 0.0274,-0.0108 0.01699,0 0.02844,0.0104 0.01144,0.0104 0.01144,0.0267 0,0.0156 -0.01214,0.026 -0.01214,0.0101 -0.02844,0.0101 -0.01699,0 -0.0274,-0.0101 z"
         style="font-style:normal;font-variant:normal;font-weight:normal;font-stretch:normal;font-size:medium;line-height:125%;font-family:ETBembo;-inkscape-font-specification:ETBembo;letter-spacing:0.01176844px;word-spacing:0px;fill:#ffffff;fill-opacity:1;stroke:none;stroke-width:0.01775588px;stroke-linecap:butt;stroke-linejoin:miter;stroke-opacity:1"
         id="path905"
         inkscape:connector-curvature="0" />
      <path
         d="m 39.98186,105.61074 q -0.0014,-0.005 -0.0014,-0.008 0,-0.007 0.0055,-0.01 h 0.008 q 0.02774,0 0.03537,-0.009 0.008,-0.009 0.008,-0.0381 v -0.3735 q 0,-0.0107 -0.01144,-0.0128 -0.0062,-0.001 -0.01803,-0.003 -0.01179,-0.002 -0.01769,-0.003 -0.0042,-0.001 -0.0049,-0.009 -6.94e-4,-0.008 0.0049,-0.0108 0.04751,-0.0121 0.09398,-0.0298 3.47e-4,0 10e-4,0 0.0035,-3.5e-4 0.0059,0.004 0.0028,0.006 0.0028,0.0104 v 0.4269 q 0,0.0319 0.0055,0.0399 0.0059,0.008 0.03156,0.008 0.01283,0 0.01352,0.004 0,7e-4 0,0.002 0,0.002 0,0.003 0,0.002 0,0.002 0,0.0114 -0.0087,0.0114 -0.01942,6.9e-4 -0.03988,6.9e-4 -0.02081,0 -0.04161,-6.9e-4 -0.02809,-0.001 -0.04716,-0.001 -0.0097,0 -0.01699,3.5e-4 -0.0014,0 -0.0045,-0.002 -0.0031,-0.002 -0.0038,-0.004 z"
         style="font-style:normal;font-variant:normal;font-weight:normal;font-stretch:normal;font-size:medium;line-height:125%;font-family:ETBembo;-inkscape-font-specification:ETBembo;letter-spacing:0.01176844px;word-spacing:0px;fill:#ffffff;fill-opacity:1;stroke:none;stroke-width:0.01775588px;stroke-linecap:butt;stroke-linejoin:miter;stroke-opacity:1"
         id="path907"
         inkscape:connector-curvature="0" />
      <path
         d="m 40.182979,105.46786 q 0,-0.0683 0.04578,-0.1134 0.04578,-0.0451 0.114095,-0.0451 0.06901,0 0.11583,0.0458 0.04612,0.0451 0.04612,0.11132 0,10e-4 0,0.002 0,0.0659 -0.04612,0.11167 -0.04612,0.0454 -0.113749,0.0454 -0.06901,0 -0.115483,-0.0451 -0.04647,-0.0451 -0.04647,-0.11271 z m 0.06173,-0.0225 q 0,0.0645 0.0319,0.10924 0.03225,0.0447 0.07699,0.0447 0.0378,0 0.06277,-0.0319 0.02532,-0.0323 0.02532,-0.0819 0,-0.0617 -0.0326,-0.10612 -0.03225,-0.0444 -0.0763,-0.0444 -0.0378,0 -0.06312,0.0312 -0.02497,0.0312 -0.02497,0.0791 z"
         style="font-style:normal;font-variant:normal;font-weight:normal;font-stretch:normal;font-size:medium;line-height:125%;font-family:ETBembo;-inkscape-font-specification:ETBembo;letter-spacing:0.01176844px;word-spacing:0px;fill:#ffffff;fill-opacity:1;stroke:none;stroke-width:0.01775588px;stroke-linecap:butt;stroke-linejoin:miter;stroke-opacity:1"
         id="path909"
         inkscape:connector-curvature="0" />
      <path
         d="m 40.553679,105.3926 q 0,-0.0385 0.0267,-0.0624 0.02705,-0.0243 0.06901,-0.0243 0.02705,0 0.05965,0.0135 0.0021,0.0284 0.0021,0.0496 0,0.0128 -6.93e-4,0.0229 0,0.003 -0.0097,0.003 -0.0042,0 -0.0073,-0.001 -0.0028,-0.001 -0.0021,-0.002 -0.0049,-0.0284 -0.01907,-0.044 -0.01422,-0.0156 -0.03433,-0.0156 -0.01699,0 -0.02809,0.0108 -0.01075,0.0104 -0.01075,0.0267 0,0.025 0.04266,0.0562 0.0069,0.005 0.0215,0.0146 0.01457,0.01 0.02497,0.018 0.01075,0.008 0.01942,0.0173 0.02428,0.0264 0.02428,0.059 0,0.0368 -0.0274,0.0621 -0.0274,0.025 -0.06589,0.025 -0.01838,0 -0.03537,-0.005 -6.94e-4,0 -0.0062,-0.002 -0.0052,-0.002 -0.008,-0.003 -0.0055,0 -0.0094,0.009 -0.0083,0.002 -0.01075,0.002 0,0 -3.46e-4,0 -0.0062,-7e-4 -0.0073,-0.007 -0.0062,-0.0499 -0.0062,-0.076 0,-0.003 0,-0.005 -6.94e-4,-0.004 0.0035,-0.005 0.0042,-0.001 0.01075,-6.9e-4 0.0035,0.001 0.0049,0.007 0.01491,0.0638 0.06242,0.0638 0.01907,0 0.0326,-0.0135 0.01353,-0.0135 0.01353,-0.0319 0,-0.007 -0.0017,-0.0135 -0.0017,-0.007 -0.0069,-0.0135 -0.0049,-0.007 -0.008,-0.0111 -0.0031,-0.005 -0.01179,-0.0108 -0.0083,-0.007 -0.01144,-0.009 -0.0028,-0.002 -0.01283,-0.009 -0.0097,-0.007 -0.0111,-0.008 -0.01977,-0.0135 -0.0319,-0.0232 -0.01214,-0.01 -0.02289,-0.0274 -0.0104,-0.0177 -0.0104,-0.0375 z"
         style="font-style:normal;font-variant:normal;font-weight:normal;font-stretch:normal;font-size:medium;line-height:125%;font-family:ETBembo;-inkscape-font-specification:ETBembo;letter-spacing:0.01176844px;word-spacing:0px;fill:#ffffff;fill-opacity:1;stroke:none;stroke-width:0.01775588px;stroke-linecap:butt;stroke-linejoin:miter;stroke-opacity:1"
         id="path911"
         inkscape:connector-curvature="0" />
      <path
         d="m 40.780808,105.46786 q 0,-0.0683 0.04578,-0.1134 0.04578,-0.0451 0.114095,-0.0451 0.06901,0 0.11583,0.0458 0.04612,0.0451 0.04612,0.11132 0,10e-4 0,0.002 0,0.0659 -0.04612,0.11167 -0.04612,0.0454 -0.113749,0.0454 -0.06901,0 -0.115483,-0.0451 -0.04647,-0.0451 -0.04647,-0.11271 z m 0.06173,-0.0225 q 0,0.0645 0.03191,0.10924 0.03225,0.0447 0.07699,0.0447 0.0378,0 0.06277,-0.0319 0.02532,-0.0323 0.02532,-0.0819 0,-0.0617 -0.0326,-0.10612 -0.03225,-0.0444 -0.0763,-0.0444 -0.0378,0 -0.06312,0.0312 -0.02497,0.0312 -0.02497,0.0791 z"
         style="font-style:normal;font-variant:normal;font-weight:normal;font-stretch:normal;font-size:medium;line-height:125%;font-family:ETBembo;-inkscape-font-specification:ETBembo;letter-spacing:0.01176844px;word-spacing:0px;fill:#ffffff;fill-opacity:1;stroke:none;stroke-width:0.01775588px;stroke-linecap:butt;stroke-linejoin:miter;stroke-opacity:1"
         id="path913"
         inkscape:connector-curvature="0" />
      <path
         d="m 41.131742,105.79593 q 10e-4,-0.008 0.0069,-0.008 h 0.0062 q 0.02982,0 0.03745,-0.0139 0.008,-0.0139 0.008,-0.0659 v -0.29408 -0.017 q 0,-0.0135 -0.0031,-0.017 -0.0031,-0.003 -0.01526,-0.007 -0.0042,-0.001 -0.01249,-0.004 -0.008,-0.003 -0.01248,-0.004 -0.0042,-6.9e-4 -0.0045,-0.007 -3.46e-4,-0.006 0.0017,-0.008 6.94e-4,-10e-4 0.0042,-0.005 l 0.07838,-0.0493 q 0.0076,-0.005 0.01214,-0.005 0.0069,0 0.0069,0.0108 v 0.044 q 0,0.0142 0.0055,0.0135 6.94e-4,0 0.0014,-6.9e-4 0.06381,-0.0454 0.100918,-0.0454 0.04474,0 0.07768,0.0427 0.03329,0.0423 0.03329,0.0985 0,0.0676 -0.04716,0.11791 -0.04682,0.0499 -0.109934,0.0499 -0.02116,0 -0.05306,-0.0101 -0.0042,-10e-4 -0.0066,3.4e-4 -0.0021,0.002 -0.0021,0.0111 v 0.0843 q 0,0.051 0.008,0.0642 0.0083,0.0135 0.03815,0.0135 h 0.01006 q 0.01075,0 0.01283,0.006 0.0028,0.0101 -6.94e-4,0.0163 -0.0021,0.004 -0.0094,0.004 -0.01595,-6.9e-4 -0.04196,-6.9e-4 -0.01977,0 -0.04543,3.5e-4 -0.03572,6.9e-4 -0.05479,6.9e-4 -0.01248,0 -0.01769,-3.5e-4 -0.0094,0 -0.01144,-0.003 -0.0021,-0.003 -0.0021,-0.009 0,-0.002 3.47e-4,-0.004 z m 0.114095,-0.24137 q 0.04057,0.0385 0.08184,0.0385 0.03537,0 0.05826,-0.0312 0.02324,-0.0316 0.02324,-0.0791 0,-0.0541 -0.02636,-0.0902 -0.02601,-0.0361 -0.0645,-0.0361 -0.02982,0 -0.06832,0.0305 -0.0042,0.004 -0.0042,0.0125 z"
         style="font-style:normal;font-variant:normal;font-weight:normal;font-stretch:normal;font-size:medium;line-height:125%;font-family:ETBembo;-inkscape-font-specification:ETBembo;letter-spacing:0.01176844px;word-spacing:0px;fill:#ffffff;fill-opacity:1;stroke:none;stroke-width:0.01775588px;stroke-linecap:butt;stroke-linejoin:miter;stroke-opacity:1"
         id="path915"
         inkscape:connector-curvature="0" />
      <path
         d="m 41.511112,105.59513 q 6.94e-4,-6.9e-4 0.01491,-0.004 0.02428,-0.001 0.03052,-0.0132 0.0062,-0.0121 0.0062,-0.0569 v -0.3246 l -6.94e-4,-0.027 q 0,-0.0156 -0.01769,-0.0184 -0.0049,-6.9e-4 -0.01457,-0.002 -0.0094,-10e-4 -0.01457,-0.002 -0.0042,-6.9e-4 -0.0049,-0.009 -6.94e-4,-0.009 0.0049,-0.0108 0.03191,-0.0128 0.09086,-0.0298 0.0021,-7e-4 0.0038,-7e-4 0.0035,0 0.0055,0.002 0.0035,0.003 0.0035,0.0142 v 0.21883 q 0,0.005 0.0024,0.0104 0.0028,0.005 0.0062,0.003 0.02844,-0.0177 0.04959,-0.0257 0.0215,-0.008 0.04994,-0.008 0.05965,0 0.07525,0.0503 0.008,0.0236 0.009,0.0787 0,0.017 -0.0014,0.0486 -0.0014,0.0312 -0.0014,0.0333 -0.0014,0.0312 -0.0014,0.0468 0,0.0135 0.008,0.0173 0.0083,0.004 0.03676,0.004 0.0069,0 0.0083,0.003 0.0017,0.003 0.0024,0.0114 3.47e-4,0.002 3.47e-4,0.004 0,0.008 -0.0049,0.008 -0.02601,3.4e-4 -0.05653,3.4e-4 -0.01526,0 -0.03156,0 -0.0489,-3.4e-4 -0.06312,-3.4e-4 -0.01144,0 -0.01144,-0.0121 -0.0014,-0.0115 0.0059,-0.0111 h 0.0042 q 0.02497,0 0.03329,-0.007 0.0087,-0.007 0.01075,-0.0271 0.0049,-0.0426 0.0049,-0.0971 0,-0.0468 -0.0038,-0.0652 -0.0038,-0.0187 -0.01457,-0.0309 -0.01699,-0.0184 -0.04404,-0.0184 -0.01352,0 -0.02705,0.005 -0.01353,0.005 -0.01942,0.008 -0.0059,0.003 -0.02323,0.0139 -0.0035,0.002 -0.0035,0.008 v 0.16993 q 0,0.0271 0.0073,0.0343 0.0076,0.007 0.03121,0.007 0.01006,0 0.01075,0.006 0,0.006 6.93e-4,0.009 0,0.004 -0.0028,0.007 -0.0021,0.002 -0.0045,0.002 -6.93e-4,0 -0.0014,0 -0.009,-3.5e-4 -0.02705,-3.5e-4 -0.01769,0 -0.04439,3.5e-4 -0.02636,3.5e-4 -0.04474,3.5e-4 -0.01838,0 -0.02878,-3.5e-4 -3.47e-4,0 -6.94e-4,0 -0.0024,0 -0.0042,-0.003 -0.0017,-0.003 -0.0017,-0.008 0,-0.007 0.0024,-0.0101 z"
         style="font-style:normal;font-variant:normal;font-weight:normal;font-stretch:normal;font-size:medium;line-height:125%;font-family:ETBembo;-inkscape-font-specification:ETBembo;letter-spacing:0.01176844px;word-spacing:0px;fill:#ffffff;fill-opacity:1;stroke:none;stroke-width:0.01775588px;stroke-linecap:butt;stroke-linejoin:miter;stroke-opacity:1"
         id="path917"
         inkscape:connector-curvature="0" />
      <path
         d="m 41.888056,105.32359 q 0.0021,-0.008 0.01422,-0.006 0.0031,0 0.01214,0 0.02705,0 0.108893,-10e-4 0.01214,0 0.01318,0.006 0.0014,0.005 0,0.0108 -0.0014,0.006 -0.0042,0.006 -0.02289,7e-4 -0.02982,0.005 -0.0069,0.004 -0.0069,0.0128 0,0.008 0.0076,0.0246 0.01491,0.0326 0.06554,0.15918 0.0021,0.005 0.0097,-0.007 0.0014,-10e-4 0.0014,-0.002 l 0.04266,-0.10854 q 0.0069,-0.0177 0.01075,-0.0291 0.0062,-0.0191 0.0062,-0.0291 0,-0.0142 -0.0087,-0.0194 -0.0083,-0.006 -0.03468,-0.006 -0.0035,-0.002 -0.0038,-0.0108 -3.46e-4,-0.009 0.0062,-0.01 h 0.0055 q 0.03399,-0.002 0.06173,-0.002 0.0222,0 0.04058,10e-4 0.01214,0 0.01352,0.006 3.47e-4,0.001 3.47e-4,0.003 0,0.003 -10e-4,0.007 -0.0014,0.005 -0.0035,0.005 -0.02185,0.003 -0.03537,0.0198 -0.01318,0.0166 -0.03433,0.0728 l -0.08809,0.23721 q -0.02497,0.0638 -0.02983,0.0759 -0.01075,0.0257 -0.02566,0.0434 -0.01145,0.0149 -0.0326,0.0149 -0.01353,0 -0.02358,-0.01 -0.0097,-0.01 -0.0097,-0.0222 0,-0.0219 0.03537,-0.0309 0.02185,-0.006 0.03641,-0.0253 0.01491,-0.0194 0.0274,-0.061 l 0.01006,-0.0329 -0.09017,-0.21432 q -0.01907,-0.0461 -0.02844,-0.0558 -0.0094,-0.01 -0.03468,-0.0118 -0.0021,-6.9e-4 -0.0038,-0.006 -0.001,-0.003 -0.001,-0.007 0,-10e-4 3.46e-4,-0.003 z"
         style="font-style:normal;font-variant:normal;font-weight:normal;font-stretch:normal;font-size:medium;line-height:125%;font-family:ETBembo;-inkscape-font-specification:ETBembo;letter-spacing:0.01176844px;word-spacing:0px;fill:#ffffff;fill-opacity:1;stroke:none;stroke-width:0.01775588px;stroke-linecap:butt;stroke-linejoin:miter;stroke-opacity:1"
         id="path919"
         inkscape:connector-curvature="0" />
    </g>
  </g>
</svg>
